<svg xmlns="http://www.w3.org/2000/svg" width="1240" height="780" viewBox="0 0 1240 780">
  <style>
    .line { stroke: #1b2540; stroke-width: 1.6; fill: none; }
    .entity { fill: #ffffff; stroke: #1b2540; stroke-width: 1.8; }
    .rel { fill: #ffffff; stroke: #1b2540; stroke-width: 1.8; }
    .attr { fill: #ffffff; stroke: #1b2540; stroke-width: 1.8; }
    .label { font-family: "Microsoft YaHei", "SimSun", Arial, sans-serif; font-size: 15px; fill: #111827; text-anchor: middle; dominant-baseline: middle; }
    .card { font-family: "Microsoft YaHei", "SimSun", Arial, sans-serif; font-size: 17px; font-weight: 600; fill: #111827; text-anchor: middle; dominant-baseline: middle; }
    .mark { font-family: "Microsoft YaHei", "SimSun", Arial, sans-serif; font-size: 15px; fill: #111827; text-anchor: middle; dominant-baseline: middle; }
  </style>

  <rect width="1240" height="780" fill="#ffffff"/>

  <g>
    <line class="line" x1="620" y1="120" x2="465" y2="280"/>
    <line class="line" x1="415" y1="320" x2="280" y2="500"/>
    <text class="mark" x="535" y="200">1</text>
    <text class="mark" x="350" y="430">N</text>

    <line class="line" x1="680" y1="120" x2="805" y2="280"/>
    <line class="line" x1="855" y1="320" x2="955" y2="500"/>
    <text class="mark" x="735" y="200">1</text>
    <text class="mark" x="910" y="430">N</text>

    <line class="line" x1="1045" y1="520" x2="1115" y2="520"/>
    <line class="line" x1="1175" y1="520" x2="1175" y2="275"/>
    <line class="line" x1="1175" y1="275" x2="960" y2="215"/>
    <text class="mark" x="1085" y="500">N</text>
    <text class="mark" x="1055" y="245">1</text>
  </g>

  <g>
    <line class="line" x1="470" y1="35" x2="605" y2="90"/>
    <line class="line" x1="620" y1="25" x2="640" y2="80"/>
    <line class="line" x1="785" y1="35" x2="695" y2="90"/>
    <line class="line" x1="430" y1="130" x2="600" y2="105"/>
    <line class="line" x1="830" y1="130" x2="700" y2="105"/>
    <line class="line" x1="505" y1="200" x2="615" y2="120"/>
    <line class="line" x1="655" y1="205" x2="655" y2="120"/>
    <line class="line" x1="790" y1="205" x2="690" y2="120"/>

    <line class="line" x1="85" y1="355" x2="235" y2="500"/>
    <line class="line" x1="215" y1="345" x2="255" y2="495"/>
    <line class="line" x1="350" y1="355" x2="285" y2="500"/>
    <line class="line" x1="65" y1="455" x2="235" y2="510"/>
    <line class="line" x1="65" y1="560" x2="235" y2="525"/>
    <line class="line" x1="110" y1="665" x2="245" y2="535"/>
    <line class="line" x1="250" y1="720" x2="265" y2="540"/>
    <line class="line" x1="400" y1="680" x2="295" y2="535"/>
    <line class="line" x1="520" y1="600" x2="310" y2="530"/>
    <line class="line" x1="535" y1="475" x2="310" y2="510"/>
    <line class="line" x1="455" y1="405" x2="295" y2="500"/>
    <line class="line" x1="310" y1="420" x2="270" y2="495"/>
    <line class="line" x1="470" y1="715" x2="305" y2="535"/>

    <line class="line" x1="760" y1="355" x2="965" y2="500"/>
    <line class="line" x1="890" y1="345" x2="985" y2="495"/>
    <line class="line" x1="1030" y1="350" x2="1005" y2="495"/>
    <line class="line" x1="1150" y1="400" x2="1025" y2="500"/>
    <line class="line" x1="1170" y1="500" x2="1045" y2="510"/>
    <line class="line" x1="1150" y1="610" x2="1040" y2="530"/>
    <line class="line" x1="1040" y1="700" x2="1015" y2="540"/>
    <line class="line" x1="890" y1="710" x2="985" y2="540"/>
    <line class="line" x1="750" y1="660" x2="965" y2="530"/>
    <line class="line" x1="710" y1="535" x2="955" y2="520"/>
    <line class="line" x1="725" y1="430" x2="960" y2="505"/>
    <line class="line" x1="855" y1="410" x2="980" y2="500"/>

    <line class="line" x1="850" y1="45" x2="875" y2="165"/>
    <line class="line" x1="980" y1="45" x2="930" y2="165"/>
    <line class="line" x1="1085" y1="100" x2="950" y2="180"/>
    <line class="line" x1="1085" y1="225" x2="960" y2="200"/>
    <line class="line" x1="1000" y1="300" x2="940" y2="215"/>
    <line class="line" x1="850" y1="300" x2="885" y2="215"/>
    <line class="line" x1="735" y1="225" x2="860" y2="200"/>
    <line class="line" x1="725" y1="100" x2="855" y2="180"/>
    <line class="line" x1="920" y1="335" x2="910" y2="220"/>
  </g>

  <g>
    <rect class="entity" x="600" y="80" width="100" height="40"/>
    <text class="card" x="650" y="100">发现任务</text>

    <polygon class="rel" points="440,270 490,300 440,330 390,300"/>
    <text class="card" x="440" y="300">产生</text>

    <rect class="entity" x="235" y="495" width="100" height="45"/>
    <text class="card" x="285" y="518">发现记录</text>

    <polygon class="rel" points="830,270 880,300 830,330 780,300"/>
    <text class="card" x="830" y="300">验证</text>

    <rect class="entity" x="955" y="495" width="100" height="45"/>
    <text class="card" x="1005" y="518">验证记录</text>

    <polygon class="rel" points="1145,490 1195,520 1145,550 1095,520"/>
    <text class="card" x="1145" y="520">入库</text>

    <rect class="entity" x="860" y="165" width="100" height="50"/>
    <text class="card" x="910" y="190">资产</text>
  </g>

  <g>
    <ellipse class="attr" cx="470" cy="35" rx="48" ry="20"/>
    <text class="label" x="470" y="35">任务id</text>
    <ellipse class="attr" cx="620" cy="25" rx="58" ry="20"/>
    <text class="label" x="620" y="25">扫描域名</text>
    <ellipse class="attr" cx="785" cy="35" rx="58" ry="20"/>
    <text class="label" x="785" y="35">扫描模式</text>
    <ellipse class="attr" cx="430" cy="130" rx="58" ry="20"/>
    <text class="label" x="430" y="130">任务状态</text>
    <ellipse class="attr" cx="830" cy="130" rx="58" ry="20"/>
    <text class="label" x="830" y="130">扫描参数</text>
    <ellipse class="attr" cx="505" cy="200" rx="58" ry="20"/>
    <text class="label" x="505" y="200">结果摘要</text>
    <ellipse class="attr" cx="655" cy="205" rx="58" ry="20"/>
    <text class="label" x="655" y="205">开始时间</text>
    <ellipse class="attr" cx="790" cy="205" rx="58" ry="20"/>
    <text class="label" x="790" y="205">完成时间</text>

    <ellipse class="attr" cx="85" cy="355" rx="48" ry="20"/>
    <text class="label" x="85" y="355">记录id</text>
    <ellipse class="attr" cx="215" cy="345" rx="48" ry="20"/>
    <text class="label" x="215" y="345">任务id</text>
    <ellipse class="attr" cx="350" cy="355" rx="58" ry="20"/>
    <text class="label" x="350" y="355">发现阶段</text>
    <ellipse class="attr" cx="65" cy="455" rx="48" ry="20"/>
    <text class="label" x="65" y="455">子域名</text>
    <ellipse class="attr" cx="65" cy="560" rx="48" ry="20"/>
    <text class="label" x="65" y="560">IP地址</text>
    <ellipse class="attr" cx="110" cy="665" rx="58" ry="20"/>
    <text class="label" x="110" y="665">发现来源</text>
    <ellipse class="attr" cx="250" cy="720" rx="58" ry="20"/>
    <text class="label" x="250" y="720">证据文本</text>
    <ellipse class="attr" cx="400" cy="680" rx="52" ry="20"/>
    <text class="label" x="400" y="680">URL列表</text>
    <ellipse class="attr" cx="520" cy="600" rx="68" ry="20"/>
    <text class="label" x="520" y="600">JS端点列表</text>
    <ellipse class="attr" cx="535" cy="475" rx="62" ry="20"/>
    <text class="label" x="535" y="475">置信度分值</text>
    <ellipse class="attr" cx="455" cy="405" rx="58" ry="20"/>
    <text class="label" x="455" y="405">验证状态</text>
    <ellipse class="attr" cx="310" cy="420" rx="58" ry="20"/>
    <text class="label" x="310" y="420">原始载荷</text>
    <ellipse class="attr" cx="470" cy="715" rx="58" ry="20"/>
    <text class="label" x="470" y="715">创建时间</text>

    <ellipse class="attr" cx="760" cy="355" rx="48" ry="20"/>
    <text class="label" x="760" y="355">验证id</text>
    <ellipse class="attr" cx="890" cy="345" rx="48" ry="20"/>
    <text class="label" x="890" y="345">任务id</text>
    <ellipse class="attr" cx="1030" cy="350" rx="48" ry="20"/>
    <text class="label" x="1030" y="350">子域名</text>
    <ellipse class="attr" cx="1150" cy="400" rx="48" ry="20"/>
    <text class="label" x="1150" y="400">IP地址</text>
    <ellipse class="attr" cx="1170" cy="500" rx="42" ry="20"/>
    <text class="label" x="1170" y="500">端口</text>
    <ellipse class="attr" cx="1150" cy="610" rx="42" ry="20"/>
    <text class="label" x="1150" y="610">协议</text>
    <ellipse class="attr" cx="1040" cy="700" rx="52" ry="20"/>
    <text class="label" x="1040" y="700">状态码</text>
    <ellipse class="attr" cx="890" cy="710" rx="58" ry="20"/>
    <text class="label" x="890" y="710">页面标题</text>
    <ellipse class="attr" cx="750" cy="660" rx="58" ry="20"/>
    <text class="label" x="750" y="660">服务信息</text>
    <ellipse class="attr" cx="710" cy="535" rx="58" ry="20"/>
    <text class="label" x="710" y="535">成功标识</text>
    <ellipse class="attr" cx="725" cy="430" rx="58" ry="20"/>
    <text class="label" x="725" y="430">证书主题</text>
    <ellipse class="attr" cx="855" cy="410" rx="58" ry="20"/>
    <text class="label" x="855" y="410">验证时间</text>

    <ellipse class="attr" cx="850" cy="45" rx="48" ry="20"/>
    <text class="label" x="850" y="45">资产id</text>
    <ellipse class="attr" cx="980" cy="45" rx="42" ry="20"/>
    <text class="label" x="980" y="45">域名</text>
    <ellipse class="attr" cx="1085" cy="100" rx="48" ry="20"/>
    <text class="label" x="1085" y="100">IP地址</text>
    <ellipse class="attr" cx="1085" cy="225" rx="42" ry="20"/>
    <text class="label" x="1085" y="225">端口</text>
    <ellipse class="attr" cx="1000" cy="300" rx="52" ry="20"/>
    <text class="label" x="1000" y="300">状态码</text>
    <ellipse class="attr" cx="850" cy="300" rx="58" ry="20"/>
    <text class="label" x="850" y="300">页面标题</text>
    <ellipse class="attr" cx="735" cy="225" rx="58" ry="20"/>
    <text class="label" x="735" y="225">服务信息</text>
    <ellipse class="attr" cx="725" cy="100" rx="68" ry="20"/>
    <text class="label" x="725" y="100">首次发现时间</text>
    <ellipse class="attr" cx="920" cy="335" rx="68" ry="20"/>
    <text class="label" x="920" y="335">最近发现时间</text>
  </g>
</svg>
