<svg xmlns="http://www.w3.org/2000/svg" width="1180" height="760" viewBox="0 0 1180 760">
  <style>
    .line { stroke: #1b2540; stroke-width: 1.6; fill: none; }
    .entity { fill: #ffffff; stroke: #1b2540; stroke-width: 1.8; }
    .rel { fill: #ffffff; stroke: #1b2540; stroke-width: 1.8; }
    .attr { fill: #ffffff; stroke: #1b2540; stroke-width: 1.8; }
    .label { font-family: "Microsoft YaHei", "SimSun", Arial, sans-serif; font-size: 16px; fill: #111827; text-anchor: middle; dominant-baseline: middle; }
    .card { font-family: "Microsoft YaHei", "SimSun", Arial, sans-serif; font-size: 17px; font-weight: 600; fill: #111827; text-anchor: middle; dominant-baseline: middle; }
    .mark { font-family: "Microsoft YaHei", "SimSun", Arial, sans-serif; font-size: 15px; fill: #111827; text-anchor: middle; dominant-baseline: middle; }
  </style>

  <rect width="1180" height="760" fill="#ffffff"/>

  <g>
    <line class="line" x1="275" y1="195" x2="430" y2="285"/>
    <line class="line" x1="490" y1="315" x2="555" y2="365"/>
    <text class="mark" x="360" y="240">1</text>
    <text class="mark" x="535" y="348">1</text>

    <line class="line" x1="275" y1="565" x2="430" y2="455"/>
    <line class="line" x1="490" y1="425" x2="555" y2="395"/>
    <text class="mark" x="360" y="500">N</text>
    <text class="mark" x="535" y="405">1</text>

    <line class="line" x1="905" y1="195" x2="750" y2="285"/>
    <line class="line" x1="690" y1="315" x2="625" y2="365"/>
    <text class="mark" x="825" y="240">1</text>
    <text class="mark" x="645" y="348">N</text>
  </g>

  <g>
    <line class="line" x1="90" y1="65" x2="190" y2="165"/>
    <line class="line" x1="210" y1="40" x2="225" y2="155"/>
    <line class="line" x1="340" y1="65" x2="270" y2="165"/>
    <line class="line" x1="80" y1="190" x2="185" y2="185"/>
    <line class="line" x1="355" y1="190" x2="275" y2="185"/>
    <line class="line" x1="120" y1="305" x2="195" y2="205"/>
    <line class="line" x1="325" y1="305" x2="265" y2="205"/>

    <line class="line" x1="770" y1="305" x2="625" y2="365"/>
    <line class="line" x1="900" y1="300" x2="635" y2="370"/>
    <line class="line" x1="1040" y1="330" x2="635" y2="375"/>
    <line class="line" x1="1065" y1="430" x2="635" y2="385"/>
    <line class="line" x1="1010" y1="540" x2="635" y2="395"/>
    <line class="line" x1="875" y1="610" x2="625" y2="405"/>
    <line class="line" x1="730" y1="610" x2="610" y2="405"/>
    <line class="line" x1="660" y1="530" x2="600" y2="405"/>
    <line class="line" x1="650" y1="260" x2="595" y2="355"/>
    <line class="line" x1="760" y1="230" x2="610" y2="360"/>
    <line class="line" x1="990" y1="225" x2="635" y2="365"/>
    <line class="line" x1="1040" y1="635" x2="630" y2="405"/>
    <line class="line" x1="575" y1="650" x2="585" y2="405"/>
    <line class="line" x1="505" y1="560" x2="565" y2="405"/>

    <line class="line" x1="75" y1="450" x2="190" y2="545"/>
    <line class="line" x1="185" y1="420" x2="225" y2="535"/>
    <line class="line" x1="330" y1="450" x2="270" y2="545"/>
    <line class="line" x1="75" y1="625" x2="190" y2="575"/>
    <line class="line" x1="220" y1="705" x2="230" y2="585"/>
    <line class="line" x1="360" y1="625" x2="275" y2="575"/>

    <line class="line" x1="795" y1="55" x2="860" y2="165"/>
    <line class="line" x1="910" y1="35" x2="905" y2="155"/>
    <line class="line" x1="1035" y1="65" x2="950" y2="165"/>
    <line class="line" x1="795" y1="220" x2="860" y2="195"/>
    <line class="line" x1="1025" y1="220" x2="950" y2="195"/>
  </g>

  <g>
    <rect class="entity" x="185" y="155" width="90" height="40"/>
    <text class="card" x="230" y="175">资产</text>

    <polygon class="rel" points="460,275 510,305 460,335 410,305"/>
    <text class="card" x="460" y="305">生成</text>

    <rect class="entity" x="555" y="355" width="90" height="50"/>
    <text class="card" x="600" y="380">机器学习分析</text>

    <polygon class="rel" points="460,415 510,445 460,475 410,445"/>
    <text class="card" x="460" y="445">匹配</text>

    <rect class="entity" x="185" y="535" width="90" height="50"/>
    <text class="card" x="230" y="560">CVE知识库</text>

    <polygon class="rel" points="720,275 770,305 720,335 670,305"/>
    <text class="card" x="720" y="305">预测</text>

    <rect class="entity" x="860" y="155" width="90" height="40"/>
    <text class="card" x="905" y="175">严重等级模型</text>
  </g>

  <g>
    <ellipse class="attr" cx="90" cy="65" rx="48" ry="20"/>
    <text class="label" x="90" y="65">资产id</text>
    <ellipse class="attr" cx="210" cy="40" rx="42" ry="20"/>
    <text class="label" x="210" y="40">域名</text>
    <ellipse class="attr" cx="340" cy="65" rx="48" ry="20"/>
    <text class="label" x="340" y="65">IP地址</text>
    <ellipse class="attr" cx="80" cy="190" rx="42" ry="20"/>
    <text class="label" x="80" y="190">端口</text>
    <ellipse class="attr" cx="355" cy="190" rx="52" ry="20"/>
    <text class="label" x="355" y="190">状态码</text>
    <ellipse class="attr" cx="120" cy="305" rx="42" ry="20"/>
    <text class="label" x="120" y="305">标题</text>
    <ellipse class="attr" cx="325" cy="305" rx="42" ry="20"/>
    <text class="label" x="325" y="305">服务</text>

    <ellipse class="attr" cx="770" cy="305" rx="48" ry="20"/>
    <text class="label" x="770" y="305">分析id</text>
    <ellipse class="attr" cx="900" cy="300" rx="48" ry="20"/>
    <text class="label" x="900" y="300">资产id</text>
    <ellipse class="attr" cx="1040" cy="330" rx="58" ry="20"/>
    <text class="label" x="1040" y="330">组件名称</text>
    <ellipse class="attr" cx="1065" cy="430" rx="58" ry="20"/>
    <text class="label" x="1065" y="430">组件置信度</text>
    <ellipse class="attr" cx="1010" cy="540" rx="58" ry="20"/>
    <text class="label" x="1010" y="540">匹配证据</text>
    <ellipse class="attr" cx="875" cy="610" rx="58" ry="20"/>
    <text class="label" x="875" y="610">匹配CVE</text>
    <ellipse class="attr" cx="730" cy="610" rx="64" ry="20"/>
    <text class="label" x="730" y="610">严重性统计</text>
    <ellipse class="attr" cx="660" cy="530" rx="58" ry="20"/>
    <text class="label" x="660" y="530">风险分值</text>
    <ellipse class="attr" cx="650" cy="260" rx="58" ry="20"/>
    <text class="label" x="650" y="260">风险等级</text>
    <ellipse class="attr" cx="760" cy="230" rx="48" ry="20"/>
    <text class="label" x="760" y="230">薄弱点</text>
    <ellipse class="attr" cx="990" cy="225" rx="58" ry="20"/>
    <text class="label" x="990" y="225">分析说明</text>
    <ellipse class="attr" cx="1040" cy="635" rx="58" ry="20"/>
    <text class="label" x="1040" y="635">模型名称</text>
    <ellipse class="attr" cx="575" cy="650" rx="58" ry="20"/>
    <text class="label" x="575" y="650">创建时间</text>
    <ellipse class="attr" cx="505" cy="560" rx="58" ry="20"/>
    <text class="label" x="505" y="560">更新时间</text>

    <ellipse class="attr" cx="75" cy="450" rx="52" ry="20"/>
    <text class="label" x="75" y="450">CVE编号</text>
    <ellipse class="attr" cx="185" cy="420" rx="58" ry="20"/>
    <text class="label" x="185" y="420">漏洞描述</text>
    <ellipse class="attr" cx="330" cy="450" rx="58" ry="20"/>
    <text class="label" x="330" y="450">训练文本</text>
    <ellipse class="attr" cx="75" cy="625" rx="58" ry="20"/>
    <text class="label" x="75" y="625">CVSS分数</text>
    <ellipse class="attr" cx="220" cy="705" rx="58" ry="20"/>
    <text class="label" x="220" y="705">严重等级</text>
    <ellipse class="attr" cx="360" cy="625" rx="58" ry="20"/>
    <text class="label" x="360" y="625">组件关键词</text>

    <ellipse class="attr" cx="795" cy="55" rx="58" ry="20"/>
    <text class="label" x="795" y="55">模型名称</text>
    <ellipse class="attr" cx="910" cy="35" rx="58" ry="20"/>
    <text class="label" x="910" y="35">模型路径</text>
    <ellipse class="attr" cx="1035" cy="65" rx="58" ry="20"/>
    <text class="label" x="1035" y="65">特征方法</text>
    <ellipse class="attr" cx="795" cy="220" rx="58" ry="20"/>
    <text class="label" x="795" y="220">训练样本</text>
    <ellipse class="attr" cx="1025" cy="220" rx="48" ry="20"/>
    <text class="label" x="1025" y="220">准确率</text>
  </g>
</svg>
