<svg xmlns="http://www.w3.org/2000/svg" width="1180" height="760" viewBox="0 0 1180 760">
  <style>
    .line { stroke: #1b2540; stroke-width: 1.6; fill: none; }
    .entity { fill: #ffffff; stroke: #1b2540; stroke-width: 1.8; }
    .rel { fill: #ffffff; stroke: #1b2540; stroke-width: 1.8; }
    .attr { fill: #ffffff; stroke: #1b2540; stroke-width: 1.8; }
    .label { font-family: "Microsoft YaHei", "SimSun", Arial, sans-serif; font-size: 15px; fill: #111827; text-anchor: middle; dominant-baseline: middle; }
    .card { font-family: "Microsoft YaHei", "SimSun", Arial, sans-serif; font-size: 17px; font-weight: 600; fill: #111827; text-anchor: middle; dominant-baseline: middle; }
    .mark { font-family: "Microsoft YaHei", "SimSun", Arial, sans-serif; font-size: 15px; fill: #111827; text-anchor: middle; dominant-baseline: middle; }
  </style>

  <rect width="1180" height="760" fill="#ffffff"/>

  <g>
    <line class="line" x1="585" y1="365" x2="455" y2="275"/>
    <line class="line" x1="405" y1="245" x2="260" y2="175"/>
    <text class="mark" x="520" y="320">1</text>
    <text class="mark" x="330" y="205">1</text>

    <line class="line" x1="585" y1="395" x2="455" y2="515"/>
    <line class="line" x1="405" y1="545" x2="260" y2="585"/>
    <text class="mark" x="520" y="455">1</text>
    <text class="mark" x="330" y="565">N</text>

    <line class="line" x1="635" y1="385" x2="775" y2="385"/>
    <line class="line" x1="835" y1="385" x2="930" y2="385"/>
    <line class="line" x1="260" y1="175" x2="775" y2="355"/>
    <line class="line" x1="260" y1="585" x2="775" y2="415"/>
    <text class="mark" x="705" y="365">1</text>
    <text class="mark" x="890" y="365">1</text>
    <text class="mark" x="535" y="250">1</text>
    <text class="mark" x="535" y="575">N</text>
  </g>

  <g>
    <line class="line" x1="470" y1="210" x2="585" y2="365"/>
    <line class="line" x1="600" y1="180" x2="600" y2="360"/>
    <line class="line" x1="730" y1="210" x2="620" y2="365"/>
    <line class="line" x1="445" y1="360" x2="585" y2="380"/>
    <line class="line" x1="745" y1="360" x2="635" y2="380"/>
    <line class="line" x1="470" y1="510" x2="585" y2="400"/>
    <line class="line" x1="600" y1="570" x2="605" y2="405"/>
    <line class="line" x1="735" y1="510" x2="625" y2="400"/>
    <line class="line" x1="760" y1="455" x2="635" y2="395"/>

    <line class="line" x1="65" y1="45" x2="165" y2="155"/>
    <line class="line" x1="190" y1="30" x2="210" y2="145"/>
    <line class="line" x1="330" y1="55" x2="250" y2="155"/>
    <line class="line" x1="55" y1="190" x2="165" y2="175"/>
    <line class="line" x1="365" y1="190" x2="260" y2="175"/>

    <line class="line" x1="60" y1="465" x2="165" y2="575"/>
    <line class="line" x1="185" y1="440" x2="210" y2="565"/>
    <line class="line" x1="330" y1="465" x2="250" y2="575"/>
    <line class="line" x1="60" y1="620" x2="165" y2="595"/>
    <line class="line" x1="205" y1="705" x2="215" y2="605"/>
    <line class="line" x1="355" y1="645" x2="260" y2="595"/>
    <line class="line" x1="355" y1="540" x2="260" y2="585"/>

    <line class="line" x1="975" y1="190" x2="980" y2="365"/>
    <line class="line" x1="1095" y1="235" x2="1025" y2="370"/>
    <line class="line" x1="1110" y1="360" x2="1030" y2="385"/>
    <line class="line" x1="1090" y1="490" x2="1025" y2="400"/>
    <line class="line" x1="975" y1="575" x2="985" y2="405"/>
    <line class="line" x1="850" y1="525" x2="940" y2="400"/>
    <line class="line" x1="850" y1="255" x2="940" y2="370"/>
  </g>

  <g>
    <rect class="entity" x="585" y="360" width="100" height="45"/>
    <text class="card" x="635" y="383">资产</text>

    <polygon class="rel" points="430,215 480,245 430,275 380,245"/>
    <text class="card" x="430" y="245">分类</text>

    <rect class="entity" x="160" y="145" width="100" height="60"/>
    <text class="card" x="210" y="175">资产分析</text>

    <polygon class="rel" points="430,505 480,535 430,565 380,535"/>
    <text class="card" x="430" y="535">标注</text>

    <rect class="entity" x="160" y="565" width="100" height="45"/>
    <text class="card" x="210" y="588">资产标签</text>

    <polygon class="rel" points="805,355 855,385 805,415 755,385"/>
    <text class="card" x="805" y="385">评估</text>

    <rect class="entity" x="930" y="365" width="100" height="45"/>
    <text class="card" x="980" y="388">风险评估结果</text>
  </g>

  <g>
    <ellipse class="attr" cx="470" cy="210" rx="48" ry="20"/>
    <text class="label" x="470" y="210">资产id</text>
    <ellipse class="attr" cx="600" cy="180" rx="42" ry="20"/>
    <text class="label" x="600" y="180">域名</text>
    <ellipse class="attr" cx="730" cy="210" rx="48" ry="20"/>
    <text class="label" x="730" y="210">IP地址</text>
    <ellipse class="attr" cx="445" cy="360" rx="42" ry="20"/>
    <text class="label" x="445" y="360">端口</text>
    <ellipse class="attr" cx="745" cy="360" rx="52" ry="20"/>
    <text class="label" x="745" y="360">状态码</text>
    <ellipse class="attr" cx="470" cy="510" rx="58" ry="20"/>
    <text class="label" x="470" y="510">页面标题</text>
    <ellipse class="attr" cx="600" cy="570" rx="58" ry="20"/>
    <text class="label" x="600" y="570">服务信息</text>
    <ellipse class="attr" cx="735" cy="510" rx="68" ry="20"/>
    <text class="label" x="735" y="510">首次发现时间</text>
    <ellipse class="attr" cx="760" cy="455" rx="68" ry="20"/>
    <text class="label" x="760" y="455">最近发现时间</text>

    <ellipse class="attr" cx="65" cy="45" rx="48" ry="20"/>
    <text class="label" x="65" y="45">分析id</text>
    <ellipse class="attr" cx="190" cy="30" rx="48" ry="20"/>
    <text class="label" x="190" y="30">资产id</text>
    <ellipse class="attr" cx="330" cy="55" rx="58" ry="20"/>
    <text class="label" x="330" y="55">资产类型</text>
    <ellipse class="attr" cx="55" cy="190" rx="58" ry="20"/>
    <text class="label" x="55" y="190">模型置信度</text>
    <ellipse class="attr" cx="365" cy="190" rx="58" ry="20"/>
    <text class="label" x="365" y="190">分析时间</text>

    <ellipse class="attr" cx="60" cy="465" rx="48" ry="20"/>
    <text class="label" x="60" y="465">标签id</text>
    <ellipse class="attr" cx="185" cy="440" rx="48" ry="20"/>
    <text class="label" x="185" y="440">资产id</text>
    <ellipse class="attr" cx="330" cy="465" rx="58" ry="20"/>
    <text class="label" x="330" y="465">标签名称</text>
    <ellipse class="attr" cx="60" cy="620" rx="58" ry="20"/>
    <text class="label" x="60" y="620">标签来源</text>
    <ellipse class="attr" cx="205" cy="705" rx="48" ry="20"/>
    <text class="label" x="205" y="705">置信度</text>
    <ellipse class="attr" cx="355" cy="645" rx="58" ry="20"/>
    <text class="label" x="355" y="645">命中规则</text>
    <ellipse class="attr" cx="355" cy="540" rx="58" ry="20"/>
    <text class="label" x="355" y="540">创建时间</text>

    <ellipse class="attr" cx="975" cy="190" rx="48" ry="20"/>
    <text class="label" x="975" y="190">风险id</text>
    <ellipse class="attr" cx="1095" cy="235" rx="48" ry="20"/>
    <text class="label" x="1095" y="235">资产id</text>
    <ellipse class="attr" cx="1110" cy="360" rx="58" ry="20"/>
    <text class="label" x="1110" y="360">风险分值</text>
    <ellipse class="attr" cx="1090" cy="490" rx="58" ry="20"/>
    <text class="label" x="1090" y="490">风险等级</text>
    <ellipse class="attr" cx="975" cy="575" rx="58" ry="20"/>
    <text class="label" x="975" y="575">评分详情</text>
    <ellipse class="attr" cx="850" cy="525" rx="58" ry="20"/>
    <text class="label" x="850" y="525">修复建议</text>
    <ellipse class="attr" cx="850" cy="255" rx="58" ry="20"/>
    <text class="label" x="850" y="255">评估时间</text>
  </g>
</svg>
