<?xml version="1.0" encoding="utf-8" standalone="no"?>
<!DOCTYPE svg PUBLIC "-//W3C//DTD SVG 1.1//EN"
  "http://www.w3.org/Graphics/SVG/1.1/DTD/svg11.dtd">
<svg xmlns:xlink="http://www.w3.org/1999/xlink" width="648pt" height="432pt" viewBox="0 0 648 432" xmlns="http://www.w3.org/2000/svg" version="1.1">
 <metadata>
  <rdf:RDF xmlns:dc="http://purl.org/dc/elements/1.1/" xmlns:cc="http://creativecommons.org/ns#" xmlns:rdf="http://www.w3.org/1999/02/22-rdf-syntax-ns#">
   <cc:Work>
    <dc:type rdf:resource="http://purl.org/dc/dcmitype/StillImage"/>
    <dc:date>2026-04-26T17:54:50.026259</dc:date>
    <dc:format>image/svg+xml</dc:format>
    <dc:creator>
     <cc:Agent>
      <dc:title>Matplotlib v3.10.6, https://matplotlib.org/</dc:title>
     </cc:Agent>
    </dc:creator>
   </cc:Work>
  </rdf:RDF>
 </metadata>
 <defs>
  <style type="text/css">*{stroke-linejoin: round; stroke-linecap: butt}</style>
 </defs>
 <g id="figure_1">
  <g id="patch_1">
   <path d="M 0 432 
L 648 432 
L 648 0 
L 0 0 
z
" style="fill: #ffffff"/>
  </g>
  <g id="axes_1">
   <g id="patch_2">
    <path d="M 163.42 392.425 
L 625.114286 392.425 
L 625.114286 29.1075 
L 163.42 29.1075 
z
" style="fill: #fbfbfa"/>
   </g>
   <g id="patch_3">
    <path d="M 163.42 375.910568 
L 353.920994 375.910568 
L 353.920994 362.565573 
L 163.42 362.565573 
z
" clip-path="url(#p55afb27503)" style="fill: #627b73"/>
   </g>
   <g id="patch_4">
    <path d="M 163.42 359.229324 
L 361.103447 359.229324 
L 361.103447 345.884329 
L 163.42 345.884329 
z
" clip-path="url(#p55afb27503)" style="fill: #627b73"/>
   </g>
   <g id="patch_5">
    <path d="M 163.42 342.54808 
L 362.875115 342.54808 
L 362.875115 329.203084 
L 163.42 329.203084 
z
" clip-path="url(#p55afb27503)" style="fill: #627b73"/>
   </g>
   <g id="patch_6">
    <path d="M 163.42 325.866835 
L 364.56422 325.866835 
L 364.56422 312.52184 
L 163.42 312.52184 
z
" clip-path="url(#p55afb27503)" style="fill: #627b73"/>
   </g>
   <g id="patch_7">
    <path d="M 163.42 309.185591 
L 369.614616 309.185591 
L 369.614616 295.840596 
L 163.42 295.840596 
z
" clip-path="url(#p55afb27503)" style="fill: #627b73"/>
   </g>
   <g id="patch_8">
    <path d="M 163.42 292.504347 
L 377.862517 292.504347 
L 377.862517 279.159351 
L 163.42 279.159351 
z
" clip-path="url(#p55afb27503)" style="fill: #627b73"/>
   </g>
   <g id="patch_9">
    <path d="M 163.42 275.823103 
L 394.419764 275.823103 
L 394.419764 262.478107 
L 163.42 262.478107 
z
" clip-path="url(#p55afb27503)" style="fill: #627b73"/>
   </g>
   <g id="patch_10">
    <path d="M 163.42 259.141858 
L 429.380529 259.141858 
L 429.380529 245.796863 
L 163.42 245.796863 
z
" clip-path="url(#p55afb27503)" style="fill: #627b73"/>
   </g>
   <g id="patch_11">
    <path d="M 163.42 242.460614 
L 450.67495 242.460614 
L 450.67495 229.115619 
L 163.42 229.115619 
z
" clip-path="url(#p55afb27503)" style="fill: #627b73"/>
   </g>
   <g id="patch_12">
    <path d="M 163.42 225.77937 
L 454.177859 225.77937 
L 454.177859 212.434374 
L 163.42 212.434374 
z
" clip-path="url(#p55afb27503)" style="fill: #627b73"/>
   </g>
   <g id="patch_13">
    <path d="M 163.42 209.098126 
L 469.244532 209.098126 
L 469.244532 195.75313 
L 163.42 195.75313 
z
" clip-path="url(#p55afb27503)" style="fill: #627b73"/>
   </g>
   <g id="patch_14">
    <path d="M 163.42 192.416881 
L 473.960799 192.416881 
L 473.960799 179.071886 
L 163.42 179.071886 
z
" clip-path="url(#p55afb27503)" style="fill: #627b73"/>
   </g>
   <g id="patch_15">
    <path d="M 163.42 175.735637 
L 519.179396 175.735637 
L 519.179396 162.390642 
L 163.42 162.390642 
z
" clip-path="url(#p55afb27503)" style="fill: #627b73"/>
   </g>
   <g id="patch_16">
    <path d="M 163.42 159.054393 
L 532.272679 159.054393 
L 532.272679 145.709397 
L 163.42 145.709397 
z
" clip-path="url(#p55afb27503)" style="fill: #627b73"/>
   </g>
   <g id="patch_17">
    <path d="M 163.42 142.373149 
L 541.647388 142.373149 
L 541.647388 129.028153 
L 163.42 129.028153 
z
" clip-path="url(#p55afb27503)" style="fill: #627b73"/>
   </g>
   <g id="patch_18">
    <path d="M 163.42 125.691904 
L 545.519207 125.691904 
L 545.519207 112.346909 
L 163.42 112.346909 
z
" clip-path="url(#p55afb27503)" style="fill: #627b73"/>
   </g>
   <g id="patch_19">
    <path d="M 163.42 109.01066 
L 562.486321 109.01066 
L 562.486321 95.665665 
L 163.42 95.665665 
z
" clip-path="url(#p55afb27503)" style="fill: #627b73"/>
   </g>
   <g id="patch_20">
    <path d="M 163.42 92.329416 
L 571.388404 92.329416 
L 571.388404 78.98442 
L 163.42 78.98442 
z
" clip-path="url(#p55afb27503)" style="fill: #627b73"/>
   </g>
   <g id="patch_21">
    <path d="M 163.42 75.648171 
L 582.288893 75.648171 
L 582.288893 62.303176 
L 163.42 62.303176 
z
" clip-path="url(#p55afb27503)" style="fill: #627b73"/>
   </g>
   <g id="patch_22">
    <path d="M 163.42 58.966927 
L 603.128844 58.966927 
L 603.128844 45.621932 
L 163.42 45.621932 
z
" clip-path="url(#p55afb27503)" style="fill: #627b73"/>
   </g>
   <g id="matplotlib.axis_1">
    <g id="xtick_1">
     <g id="line2d_1">
      <path d="M 163.42 392.425 
L 163.42 29.1075 
" clip-path="url(#p55afb27503)" style="fill: none; stroke-dasharray: 2.96,1.28; stroke-dashoffset: 0; stroke: #9ca3af; stroke-opacity: 0.25; stroke-width: 0.8"/>
     </g>
     <g id="line2d_2">
      <defs>
       <path id="mc8d139a01d" d="M 0 0 
L 0 3.5 
" style="stroke: #4b5563; stroke-width: 0.8"/>
      </defs>
      <g>
       <use xlink:href="#mc8d139a01d" x="163.42" y="392.425" style="fill: #4b5563; stroke: #4b5563; stroke-width: 0.8"/>
      </g>
     </g>
     <g id="text_1">
      <!-- 0.0000 -->
      <g style="fill: #4b5563" transform="translate(148.42 406.3) scale(0.1 -0.1)">
       <defs>
        <path id="SimHei-30" d="M 225 2537 
Q 250 3200 412 3587 
Q 575 3975 875 4225 
Q 1175 4475 1612 4475 
Q 2050 4475 2375 4112 
Q 2700 3750 2800 3200 
Q 2900 2650 2862 1937 
Q 2825 1225 2612 775 
Q 2400 325 1975 150 
Q 1550 -25 1125 187 
Q 700 400 525 750 
Q 350 1100 275 1487 
Q 200 1875 225 2537 
z
M 750 2687 
Q 675 2000 800 1462 
Q 925 925 1212 700 
Q 1500 475 1800 612 
Q 2100 750 2237 1162 
Q 2375 1575 2375 2062 
Q 2375 2550 2337 2950 
Q 2300 3350 2112 3675 
Q 1925 4000 1612 4012 
Q 1300 4025 1062 3700 
Q 825 3375 750 2687 
z
" transform="scale(0.015625)"/>
        <path id="SimHei-2e" d="M 1075 125 
L 500 125 
L 500 675 
L 1075 675 
L 1075 125 
z
" transform="scale(0.015625)"/>
       </defs>
       <use xlink:href="#SimHei-30"/>
       <use xlink:href="#SimHei-2e" transform="translate(50 0)"/>
       <use xlink:href="#SimHei-30" transform="translate(100 0)"/>
       <use xlink:href="#SimHei-30" transform="translate(150 0)"/>
       <use xlink:href="#SimHei-30" transform="translate(200 0)"/>
       <use xlink:href="#SimHei-30" transform="translate(250 0)"/>
      </g>
     </g>
    </g>
    <g id="xtick_2">
     <g id="line2d_3">
      <path d="M 223.744448 392.425 
L 223.744448 29.1075 
" clip-path="url(#p55afb27503)" style="fill: none; stroke-dasharray: 2.96,1.28; stroke-dashoffset: 0; stroke: #9ca3af; stroke-opacity: 0.25; stroke-width: 0.8"/>
     </g>
     <g id="line2d_4">
      <g>
       <use xlink:href="#mc8d139a01d" x="223.744448" y="392.425" style="fill: #4b5563; stroke: #4b5563; stroke-width: 0.8"/>
      </g>
     </g>
     <g id="text_2">
      <!-- 0.0025 -->
      <g style="fill: #4b5563" transform="translate(208.744448 406.3) scale(0.1 -0.1)">
       <defs>
        <path id="SimHei-32" d="M 300 250 
Q 325 625 650 925 
Q 975 1225 1475 1862 
Q 1975 2500 2125 2850 
Q 2275 3200 2237 3450 
Q 2200 3700 2000 3862 
Q 1800 4025 1537 4000 
Q 1275 3975 1037 3800 
Q 800 3625 675 3275 
L 200 3350 
Q 400 3925 712 4187 
Q 1025 4450 1450 4475 
Q 1700 4500 1900 4462 
Q 2100 4425 2312 4287 
Q 2525 4150 2662 3875 
Q 2800 3600 2762 3212 
Q 2725 2825 2375 2287 
Q 2025 1750 1025 600 
L 2825 600 
L 2825 150 
L 300 150 
L 300 250 
z
" transform="scale(0.015625)"/>
        <path id="SimHei-35" d="M 550 1325 
Q 725 650 1150 575 
Q 1575 500 1837 662 
Q 2100 825 2212 1087 
Q 2325 1350 2312 1675 
Q 2300 2000 2137 2225 
Q 1975 2450 1725 2525 
Q 1475 2600 1162 2525 
Q 850 2450 650 2175 
L 225 2225 
Q 275 2375 700 4375 
L 2675 4375 
L 2675 3925 
L 1075 3925 
Q 950 3250 825 2850 
Q 1200 3025 1525 3012 
Q 1850 3000 2150 2862 
Q 2450 2725 2587 2487 
Q 2725 2250 2787 2012 
Q 2850 1775 2837 1500 
Q 2825 1225 2725 937 
Q 2625 650 2425 462 
Q 2225 275 1937 162 
Q 1650 50 1275 75 
Q 900 100 562 350 
Q 225 600 100 1200 
L 550 1325 
z
" transform="scale(0.015625)"/>
       </defs>
       <use xlink:href="#SimHei-30"/>
       <use xlink:href="#SimHei-2e" transform="translate(50 0)"/>
       <use xlink:href="#SimHei-30" transform="translate(100 0)"/>
       <use xlink:href="#SimHei-30" transform="translate(150 0)"/>
       <use xlink:href="#SimHei-32" transform="translate(200 0)"/>
       <use xlink:href="#SimHei-35" transform="translate(250 0)"/>
      </g>
     </g>
    </g>
    <g id="xtick_3">
     <g id="line2d_5">
      <path d="M 284.068897 392.425 
L 284.068897 29.1075 
" clip-path="url(#p55afb27503)" style="fill: none; stroke-dasharray: 2.96,1.28; stroke-dashoffset: 0; stroke: #9ca3af; stroke-opacity: 0.25; stroke-width: 0.8"/>
     </g>
     <g id="line2d_6">
      <g>
       <use xlink:href="#mc8d139a01d" x="284.068897" y="392.425" style="fill: #4b5563; stroke: #4b5563; stroke-width: 0.8"/>
      </g>
     </g>
     <g id="text_3">
      <!-- 0.0050 -->
      <g style="fill: #4b5563" transform="translate(269.068897 406.3) scale(0.1 -0.1)">
       <use xlink:href="#SimHei-30"/>
       <use xlink:href="#SimHei-2e" transform="translate(50 0)"/>
       <use xlink:href="#SimHei-30" transform="translate(100 0)"/>
       <use xlink:href="#SimHei-30" transform="translate(150 0)"/>
       <use xlink:href="#SimHei-35" transform="translate(200 0)"/>
       <use xlink:href="#SimHei-30" transform="translate(250 0)"/>
      </g>
     </g>
    </g>
    <g id="xtick_4">
     <g id="line2d_7">
      <path d="M 344.393345 392.425 
L 344.393345 29.1075 
" clip-path="url(#p55afb27503)" style="fill: none; stroke-dasharray: 2.96,1.28; stroke-dashoffset: 0; stroke: #9ca3af; stroke-opacity: 0.25; stroke-width: 0.8"/>
     </g>
     <g id="line2d_8">
      <g>
       <use xlink:href="#mc8d139a01d" x="344.393345" y="392.425" style="fill: #4b5563; stroke: #4b5563; stroke-width: 0.8"/>
      </g>
     </g>
     <g id="text_4">
      <!-- 0.0075 -->
      <g style="fill: #4b5563" transform="translate(329.393345 406.3) scale(0.1 -0.1)">
       <defs>
        <path id="SimHei-37" d="M 850 150 
Q 1300 2050 2425 3925 
L 275 3925 
L 275 4375 
L 2950 4375 
L 2950 3950 
Q 1775 2050 1400 150 
L 850 150 
z
" transform="scale(0.015625)"/>
       </defs>
       <use xlink:href="#SimHei-30"/>
       <use xlink:href="#SimHei-2e" transform="translate(50 0)"/>
       <use xlink:href="#SimHei-30" transform="translate(100 0)"/>
       <use xlink:href="#SimHei-30" transform="translate(150 0)"/>
       <use xlink:href="#SimHei-37" transform="translate(200 0)"/>
       <use xlink:href="#SimHei-35" transform="translate(250 0)"/>
      </g>
     </g>
    </g>
    <g id="xtick_5">
     <g id="line2d_9">
      <path d="M 404.717793 392.425 
L 404.717793 29.1075 
" clip-path="url(#p55afb27503)" style="fill: none; stroke-dasharray: 2.96,1.28; stroke-dashoffset: 0; stroke: #9ca3af; stroke-opacity: 0.25; stroke-width: 0.8"/>
     </g>
     <g id="line2d_10">
      <g>
       <use xlink:href="#mc8d139a01d" x="404.717793" y="392.425" style="fill: #4b5563; stroke: #4b5563; stroke-width: 0.8"/>
      </g>
     </g>
     <g id="text_5">
      <!-- 0.0100 -->
      <g style="fill: #4b5563" transform="translate(389.717793 406.3) scale(0.1 -0.1)">
       <defs>
        <path id="SimHei-31" d="M 1400 3600 
Q 1075 3275 575 2975 
L 575 3450 
Q 1200 3875 1600 4450 
L 1900 4450 
L 1900 150 
L 1400 150 
L 1400 3600 
z
" transform="scale(0.015625)"/>
       </defs>
       <use xlink:href="#SimHei-30"/>
       <use xlink:href="#SimHei-2e" transform="translate(50 0)"/>
       <use xlink:href="#SimHei-30" transform="translate(100 0)"/>
       <use xlink:href="#SimHei-31" transform="translate(150 0)"/>
       <use xlink:href="#SimHei-30" transform="translate(200 0)"/>
       <use xlink:href="#SimHei-30" transform="translate(250 0)"/>
      </g>
     </g>
    </g>
    <g id="xtick_6">
     <g id="line2d_11">
      <path d="M 465.042242 392.425 
L 465.042242 29.1075 
" clip-path="url(#p55afb27503)" style="fill: none; stroke-dasharray: 2.96,1.28; stroke-dashoffset: 0; stroke: #9ca3af; stroke-opacity: 0.25; stroke-width: 0.8"/>
     </g>
     <g id="line2d_12">
      <g>
       <use xlink:href="#mc8d139a01d" x="465.042242" y="392.425" style="fill: #4b5563; stroke: #4b5563; stroke-width: 0.8"/>
      </g>
     </g>
     <g id="text_6">
      <!-- 0.0125 -->
      <g style="fill: #4b5563" transform="translate(450.042242 406.3) scale(0.1 -0.1)">
       <use xlink:href="#SimHei-30"/>
       <use xlink:href="#SimHei-2e" transform="translate(50 0)"/>
       <use xlink:href="#SimHei-30" transform="translate(100 0)"/>
       <use xlink:href="#SimHei-31" transform="translate(150 0)"/>
       <use xlink:href="#SimHei-32" transform="translate(200 0)"/>
       <use xlink:href="#SimHei-35" transform="translate(250 0)"/>
      </g>
     </g>
    </g>
    <g id="xtick_7">
     <g id="line2d_13">
      <path d="M 525.36669 392.425 
L 525.36669 29.1075 
" clip-path="url(#p55afb27503)" style="fill: none; stroke-dasharray: 2.96,1.28; stroke-dashoffset: 0; stroke: #9ca3af; stroke-opacity: 0.25; stroke-width: 0.8"/>
     </g>
     <g id="line2d_14">
      <g>
       <use xlink:href="#mc8d139a01d" x="525.36669" y="392.425" style="fill: #4b5563; stroke: #4b5563; stroke-width: 0.8"/>
      </g>
     </g>
     <g id="text_7">
      <!-- 0.0150 -->
      <g style="fill: #4b5563" transform="translate(510.36669 406.3) scale(0.1 -0.1)">
       <use xlink:href="#SimHei-30"/>
       <use xlink:href="#SimHei-2e" transform="translate(50 0)"/>
       <use xlink:href="#SimHei-30" transform="translate(100 0)"/>
       <use xlink:href="#SimHei-31" transform="translate(150 0)"/>
       <use xlink:href="#SimHei-35" transform="translate(200 0)"/>
       <use xlink:href="#SimHei-30" transform="translate(250 0)"/>
      </g>
     </g>
    </g>
    <g id="xtick_8">
     <g id="line2d_15">
      <path d="M 585.691138 392.425 
L 585.691138 29.1075 
" clip-path="url(#p55afb27503)" style="fill: none; stroke-dasharray: 2.96,1.28; stroke-dashoffset: 0; stroke: #9ca3af; stroke-opacity: 0.25; stroke-width: 0.8"/>
     </g>
     <g id="line2d_16">
      <g>
       <use xlink:href="#mc8d139a01d" x="585.691138" y="392.425" style="fill: #4b5563; stroke: #4b5563; stroke-width: 0.8"/>
      </g>
     </g>
     <g id="text_8">
      <!-- 0.0175 -->
      <g style="fill: #4b5563" transform="translate(570.691138 406.3) scale(0.1 -0.1)">
       <use xlink:href="#SimHei-30"/>
       <use xlink:href="#SimHei-2e" transform="translate(50 0)"/>
       <use xlink:href="#SimHei-30" transform="translate(100 0)"/>
       <use xlink:href="#SimHei-31" transform="translate(150 0)"/>
       <use xlink:href="#SimHei-37" transform="translate(200 0)"/>
       <use xlink:href="#SimHei-35" transform="translate(250 0)"/>
      </g>
     </g>
    </g>
    <g id="text_9">
     <!-- 重要性分值 -->
     <g style="fill: #2f3437" transform="translate(369.267143 419.401562) scale(0.1 -0.1)">
      <defs>
       <path id="SimHei-91cd" d="M 5300 4575 
Q 3900 4450 3425 4400 
L 3425 3875 
L 5150 3875 
Q 5500 3875 6000 3900 
L 6000 3450 
Q 5500 3475 5150 3475 
L 3425 3475 
L 3425 3050 
L 5150 3050 
Q 5125 2675 5125 2125 
Q 5125 1575 5150 1175 
L 3425 1175 
L 3425 750 
L 4550 750 
Q 5000 750 5500 775 
L 5500 375 
Q 5025 400 4575 400 
L 3425 400 
L 3425 -50 
L 5050 -50 
Q 5475 -50 5975 -25 
L 5975 -450 
Q 5475 -425 5075 -425 
L 1475 -425 
Q 975 -425 450 -450 
L 450 -25 
Q 975 -50 1450 -50 
L 2925 -50 
L 2925 400 
L 2050 400 
Q 1450 400 950 375 
L 950 775 
Q 1600 750 2075 750 
L 2925 750 
L 2925 1175 
L 1250 1175 
Q 1275 1800 1275 2125 
Q 1275 2450 1250 3050 
L 2925 3050 
L 2925 3475 
L 1225 3475 
Q 875 3475 400 3450 
L 400 3900 
Q 875 3875 1225 3875 
L 2925 3875 
L 2925 4375 
Q 2425 4350 1075 4250 
Q 1000 4475 875 4675 
Q 2275 4700 3362 4812 
Q 4450 4925 4925 5075 
Q 5025 4825 5300 4575 
z
M 4650 2300 
L 4650 2650 
L 3425 2650 
L 3425 2300 
L 4650 2300 
z
M 2925 2300 
L 2925 2650 
L 1750 2650 
L 1750 2300 
L 2925 2300 
z
M 4625 1575 
L 4625 1900 
L 3425 1900 
L 3425 1575 
L 4625 1575 
z
M 2925 1575 
L 2925 1900 
L 1750 1900 
L 1750 1575 
L 2925 1575 
z
" transform="scale(0.015625)"/>
       <path id="SimHei-8981" d="M 5100 5000 
Q 5475 5000 5950 5025 
L 5950 4600 
Q 5475 4625 5100 4625 
L 4100 4625 
L 4100 3975 
L 5500 3975 
Q 5475 3550 5475 3175 
Q 5475 2800 5500 2400 
L 2850 2400 
Q 3125 2225 3275 2125 
Q 3050 1975 2950 1850 
L 5300 1850 
Q 5700 1850 6150 1900 
L 6150 1425 
Q 5700 1450 5275 1450 
L 4550 1450 
Q 4300 1025 3875 525 
Q 5000 225 6000 -125 
Q 5750 -300 5600 -550 
Q 4650 -125 3500 200 
Q 3150 -50 2612 -250 
Q 2075 -450 1587 -525 
Q 1100 -600 700 -650 
Q 625 -325 375 -125 
Q 850 -150 1375 -100 
Q 1900 -50 2325 87 
Q 2750 225 3000 375 
Q 2175 575 1375 725 
Q 1750 1100 2075 1450 
L 1025 1450 
Q 600 1450 200 1425 
L 200 1875 
Q 700 1850 1025 1850 
L 2350 1850 
Q 2600 2150 2750 2400 
L 900 2400 
Q 925 2800 925 3175 
Q 925 3550 900 3975 
L 2275 3975 
L 2275 4625 
L 1300 4625 
Q 875 4625 400 4600 
L 400 5025 
Q 875 5000 1275 5000 
L 5100 5000 
z
M 2225 975 
Q 2625 900 3400 675 
Q 3700 975 4025 1450 
L 2675 1450 
Q 2450 1225 2225 975 
z
M 3650 2775 
L 3650 3575 
L 2750 3575 
L 2750 2775 
L 3650 2775 
z
M 5000 2775 
L 5000 3575 
L 4100 3575 
L 4100 2775 
L 5000 2775 
z
M 2275 2775 
L 2275 3575 
L 1400 3575 
L 1400 2775 
L 2275 2775 
z
M 3650 3975 
L 3650 4625 
L 2750 4625 
L 2750 3975 
L 3650 3975 
z
" transform="scale(0.015625)"/>
       <path id="SimHei-6027" d="M 3450 4525 
Q 3325 4075 3275 3750 
L 4050 3750 
L 4050 4275 
Q 4050 4700 4025 5100 
L 4550 5100 
Q 4525 4700 4525 4275 
L 4525 3750 
L 5025 3750 
Q 5350 3750 5800 3775 
L 5800 3300 
Q 5350 3325 5025 3325 
L 4525 3325 
L 4525 2000 
L 4975 2000 
Q 5350 2000 5725 2025 
L 5725 1550 
Q 5350 1575 4975 1575 
L 4525 1575 
L 4525 25 
L 5200 25 
Q 5625 25 6025 50 
L 6025 -400 
Q 5625 -375 5200 -375 
L 3275 -375 
Q 2825 -375 2400 -400 
L 2400 50 
Q 2825 25 3250 25 
L 4050 25 
L 4050 1575 
L 3625 1575 
Q 3300 1575 2875 1550 
L 2875 2025 
Q 3200 2000 3625 2000 
L 4050 2000 
L 4050 3325 
L 3175 3325 
Q 3100 2950 2775 2225 
Q 2500 2375 2325 2400 
Q 2675 3125 2775 3650 
Q 2875 4175 2950 4650 
Q 3200 4575 3450 4525 
z
M 1700 5150 
Q 1675 4650 1675 4175 
L 1675 425 
Q 1675 -100 1700 -625 
L 1175 -625 
Q 1200 -100 1200 425 
L 1200 4175 
Q 1200 4700 1175 5150 
L 1700 5150 
z
M 975 3725 
Q 825 2675 700 2150 
Q 450 2200 250 2250 
Q 425 2900 525 3800 
Q 725 3775 975 3725 
z
M 2125 4025 
Q 2325 3625 2525 3000 
Q 2300 2925 2125 2825 
Q 1950 3375 1750 3850 
Q 1950 3950 2125 4025 
z
" transform="scale(0.015625)"/>
       <path id="SimHei-5206" d="M 1000 -650 
Q 825 -375 575 -225 
Q 975 -75 1300 137 
Q 1625 350 1875 662 
Q 2125 975 2250 1350 
Q 2375 1725 2425 2275 
Q 1850 2275 1500 2250 
L 1500 2775 
Q 1900 2750 2525 2750 
L 5025 2750 
Q 4975 2375 4950 2100 
L 4750 250 
Q 4700 -200 4350 -350 
Q 4000 -500 3575 -525 
Q 3550 -275 3325 50 
Q 3850 25 4037 87 
Q 4225 150 4275 525 
L 4450 2275 
L 2950 2275 
Q 2875 1625 2737 1187 
Q 2600 750 2350 425 
Q 2100 100 1750 -175 
Q 1400 -450 1000 -650 
z
M 3950 5175 
Q 4125 4650 4662 3975 
Q 5200 3300 6175 2800 
Q 5975 2625 5775 2275 
Q 5325 2600 4987 2887 
Q 4650 3175 4425 3425 
Q 4200 3675 3925 4137 
Q 3650 4600 3475 5000 
Q 3750 5075 3950 5175 
z
M 2700 4825 
Q 2475 4425 2325 4125 
Q 2175 3825 2025 3587 
Q 1875 3350 1575 2950 
Q 1275 2550 850 2125 
Q 625 2350 400 2475 
Q 900 2925 1187 3300 
Q 1475 3675 1737 4112 
Q 2000 4550 2200 5075 
Q 2400 4925 2700 4825 
z
" transform="scale(0.015625)"/>
       <path id="SimHei-503c" d="M 3675 4450 
L 3675 5100 
Q 3975 5075 4350 5050 
Q 4225 4875 4200 4450 
L 5125 4450 
Q 5550 4450 5875 4475 
L 5875 4025 
Q 5525 4050 5125 4050 
L 4175 4050 
L 4125 3500 
L 5400 3500 
Q 5375 3200 5375 2700 
L 5375 150 
Q 5875 150 6100 175 
L 6100 -275 
Q 5775 -250 5200 -250 
L 2850 -250 
Q 2275 -250 1900 -275 
L 1900 175 
Q 2125 150 2600 150 
L 2600 2700 
Q 2600 3175 2575 3500 
L 3600 3500 
L 3650 4050 
L 3200 4050 
Q 2575 4050 2225 4025 
L 2225 4475 
Q 2550 4450 3200 4450 
L 3675 4450 
z
M 2225 4900 
Q 2025 4675 1650 3750 
L 1650 450 
Q 1650 -75 1675 -550 
L 1150 -550 
Q 1175 -125 1175 375 
L 1175 2950 
Q 875 2450 625 2150 
Q 425 2425 250 2575 
Q 500 2825 937 3537 
Q 1375 4250 1625 5150 
Q 1975 4975 2225 4900 
z
M 4925 2650 
L 4925 3150 
L 3075 3150 
L 3075 2650 
L 4925 2650 
z
M 4925 150 
L 4925 625 
L 3075 625 
L 3075 150 
L 4925 150 
z
M 4925 1000 
L 4925 1450 
L 3075 1450 
L 3075 1000 
L 4925 1000 
z
M 4925 1825 
L 4925 2275 
L 3075 2275 
L 3075 1825 
L 4925 1825 
z
" transform="scale(0.015625)"/>
      </defs>
      <use xlink:href="#SimHei-91cd"/>
      <use xlink:href="#SimHei-8981" transform="translate(100 0)"/>
      <use xlink:href="#SimHei-6027" transform="translate(200 0)"/>
      <use xlink:href="#SimHei-5206" transform="translate(300 0)"/>
      <use xlink:href="#SimHei-503c" transform="translate(400 0)"/>
     </g>
    </g>
   </g>
   <g id="matplotlib.axis_2">
    <g id="ytick_1">
     <g id="line2d_17">
      <defs>
       <path id="m0a6689a611" d="M 0 0 
L -3.5 0 
" style="stroke: #4b5563; stroke-width: 0.8"/>
      </defs>
      <g>
       <use xlink:href="#m0a6689a611" x="163.42" y="369.23807" style="fill: #4b5563; stroke: #4b5563; stroke-width: 0.8"/>
      </g>
     </g>
     <g id="text_10">
      <!-- cvss_ui_r cvss_s_u cvss_c_h -->
      <g style="fill: #4b5563" transform="translate(21.42 372.67557) scale(0.1 -0.1)">
       <defs>
        <path id="SimHei-63" d="M 2850 1250 
Q 2850 725 2487 400 
Q 2125 75 1575 75 
Q 1025 75 625 462 
Q 225 850 225 1525 
Q 225 2200 625 2587 
Q 1025 2975 1575 2975 
Q 2125 2975 2450 2687 
Q 2775 2400 2775 2000 
L 2225 2000 
Q 2200 2300 2012 2412 
Q 1825 2525 1575 2525 
Q 1275 2525 1025 2287 
Q 775 2050 775 1525 
Q 775 1000 1025 762 
Q 1275 525 1575 525 
Q 1900 525 2100 700 
Q 2300 875 2300 1250 
L 2850 1250 
z
" transform="scale(0.015625)"/>
        <path id="SimHei-76" d="M 2875 2925 
L 1825 75 
L 1275 75 
L 225 2925 
L 750 2925 
L 1525 750 
L 1575 750 
L 2350 2925 
L 2875 2925 
z
" transform="scale(0.015625)"/>
        <path id="SimHei-73" d="M 2750 900 
Q 2750 500 2437 287 
Q 2125 75 1650 75 
Q 1050 75 725 312 
Q 400 550 400 1000 
L 900 1000 
Q 900 700 1112 600 
Q 1325 500 1625 500 
Q 1925 500 2075 612 
Q 2225 725 2225 900 
Q 2225 1025 2100 1150 
Q 1975 1275 1475 1350 
Q 900 1425 687 1637 
Q 475 1850 475 2200 
Q 475 2500 762 2737 
Q 1050 2975 1600 2975 
Q 2100 2975 2387 2750 
Q 2675 2525 2675 2150 
L 2175 2150 
Q 2175 2375 2012 2462 
Q 1850 2550 1600 2550 
Q 1275 2550 1137 2437 
Q 1000 2325 1000 2175 
Q 1000 2000 1125 1900 
Q 1250 1800 1650 1750 
Q 2300 1650 2525 1437 
Q 2750 1225 2750 900 
z
" transform="scale(0.015625)"/>
        <path id="SimHei-5f" d="M 3150 -850 
L 0 -850 
L 0 -550 
L 3150 -550 
L 3150 -850 
z
" transform="scale(0.015625)"/>
        <path id="SimHei-75" d="M 2800 125 
L 2300 125 
L 2300 650 
Q 2100 375 1862 225 
Q 1625 75 1250 75 
Q 800 75 575 325 
Q 350 575 350 950 
L 350 2925 
L 850 2925 
L 850 1125 
Q 850 825 1000 650 
Q 1150 475 1400 475 
Q 1725 475 2012 812 
Q 2300 1150 2300 1650 
L 2300 2925 
L 2800 2925 
L 2800 125 
z
" transform="scale(0.015625)"/>
        <path id="SimHei-69" d="M 1800 3725 
L 1300 3725 
L 1300 4375 
L 1800 4375 
L 1800 3725 
z
M 1800 125 
L 1300 125 
L 1300 2925 
L 1800 2925 
L 1800 125 
z
" transform="scale(0.015625)"/>
        <path id="SimHei-72" d="M 2500 2425 
Q 2025 2500 1700 2287 
Q 1375 2075 1150 1550 
L 1150 125 
L 650 125 
L 650 2925 
L 1150 2925 
L 1150 2200 
Q 1375 2600 1712 2787 
Q 2050 2975 2500 2975 
L 2500 2425 
z
" transform="scale(0.015625)"/>
        <path id="SimHei-20" transform="scale(0.015625)"/>
        <path id="SimHei-68" d="M 2800 125 
L 2300 125 
L 2300 1925 
Q 2300 2225 2150 2400 
Q 2000 2575 1750 2575 
Q 1425 2575 1137 2237 
Q 850 1900 850 1400 
L 850 125 
L 350 125 
L 350 4400 
L 850 4400 
L 850 2400 
Q 1050 2675 1287 2825 
Q 1525 2975 1900 2975 
Q 2350 2975 2575 2725 
Q 2800 2475 2800 2100 
L 2800 125 
z
" transform="scale(0.015625)"/>
       </defs>
       <use xlink:href="#SimHei-63"/>
       <use xlink:href="#SimHei-76" transform="translate(50 0)"/>
       <use xlink:href="#SimHei-73" transform="translate(100 0)"/>
       <use xlink:href="#SimHei-73" transform="translate(150 0)"/>
       <use xlink:href="#SimHei-5f" transform="translate(200 0)"/>
       <use xlink:href="#SimHei-75" transform="translate(250 0)"/>
       <use xlink:href="#SimHei-69" transform="translate(300 0)"/>
       <use xlink:href="#SimHei-5f" transform="translate(350 0)"/>
       <use xlink:href="#SimHei-72" transform="translate(400 0)"/>
       <use xlink:href="#SimHei-20" transform="translate(450 0)"/>
       <use xlink:href="#SimHei-63" transform="translate(500 0)"/>
       <use xlink:href="#SimHei-76" transform="translate(550 0)"/>
       <use xlink:href="#SimHei-73" transform="translate(600 0)"/>
       <use xlink:href="#SimHei-73" transform="translate(650 0)"/>
       <use xlink:href="#SimHei-5f" transform="translate(700 0)"/>
       <use xlink:href="#SimHei-73" transform="translate(750 0)"/>
       <use xlink:href="#SimHei-5f" transform="translate(800 0)"/>
       <use xlink:href="#SimHei-75" transform="translate(850 0)"/>
       <use xlink:href="#SimHei-20" transform="translate(900 0)"/>
       <use xlink:href="#SimHei-63" transform="translate(950 0)"/>
       <use xlink:href="#SimHei-76" transform="translate(1000 0)"/>
       <use xlink:href="#SimHei-73" transform="translate(1050 0)"/>
       <use xlink:href="#SimHei-73" transform="translate(1100 0)"/>
       <use xlink:href="#SimHei-5f" transform="translate(1150 0)"/>
       <use xlink:href="#SimHei-63" transform="translate(1200 0)"/>
       <use xlink:href="#SimHei-5f" transform="translate(1250 0)"/>
       <use xlink:href="#SimHei-68" transform="translate(1300 0)"/>
      </g>
     </g>
    </g>
    <g id="ytick_2">
     <g id="line2d_18">
      <g>
       <use xlink:href="#m0a6689a611" x="163.42" y="352.556826" style="fill: #4b5563; stroke: #4b5563; stroke-width: 0.8"/>
      </g>
     </g>
     <g id="text_11">
      <!-- cvss_s_u cvss_c_h -->
      <g style="fill: #4b5563" transform="translate(71.42 355.994326) scale(0.1 -0.1)">
       <use xlink:href="#SimHei-63"/>
       <use xlink:href="#SimHei-76" transform="translate(50 0)"/>
       <use xlink:href="#SimHei-73" transform="translate(100 0)"/>
       <use xlink:href="#SimHei-73" transform="translate(150 0)"/>
       <use xlink:href="#SimHei-5f" transform="translate(200 0)"/>
       <use xlink:href="#SimHei-73" transform="translate(250 0)"/>
       <use xlink:href="#SimHei-5f" transform="translate(300 0)"/>
       <use xlink:href="#SimHei-75" transform="translate(350 0)"/>
       <use xlink:href="#SimHei-20" transform="translate(400 0)"/>
       <use xlink:href="#SimHei-63" transform="translate(450 0)"/>
       <use xlink:href="#SimHei-76" transform="translate(500 0)"/>
       <use xlink:href="#SimHei-73" transform="translate(550 0)"/>
       <use xlink:href="#SimHei-73" transform="translate(600 0)"/>
       <use xlink:href="#SimHei-5f" transform="translate(650 0)"/>
       <use xlink:href="#SimHei-63" transform="translate(700 0)"/>
       <use xlink:href="#SimHei-5f" transform="translate(750 0)"/>
       <use xlink:href="#SimHei-68" transform="translate(800 0)"/>
      </g>
     </g>
    </g>
    <g id="ytick_3">
     <g id="line2d_19">
      <g>
       <use xlink:href="#m0a6689a611" x="163.42" y="335.875582" style="fill: #4b5563; stroke: #4b5563; stroke-width: 0.8"/>
      </g>
     </g>
     <g id="text_12">
      <!-- cvss_c_n -->
      <g style="fill: #4b5563" transform="translate(116.42 339.274019) scale(0.1 -0.1)">
       <defs>
        <path id="SimHei-6e" d="M 2800 125 
L 2300 125 
L 2300 1925 
Q 2300 2225 2150 2400 
Q 2000 2575 1750 2575 
Q 1425 2575 1137 2237 
Q 850 1900 850 1400 
L 850 125 
L 350 125 
L 350 2925 
L 850 2925 
L 850 2400 
Q 1050 2675 1287 2825 
Q 1525 2975 1900 2975 
Q 2350 2975 2575 2725 
Q 2800 2475 2800 2100 
L 2800 125 
z
" transform="scale(0.015625)"/>
       </defs>
       <use xlink:href="#SimHei-63"/>
       <use xlink:href="#SimHei-76" transform="translate(50 0)"/>
       <use xlink:href="#SimHei-73" transform="translate(100 0)"/>
       <use xlink:href="#SimHei-73" transform="translate(150 0)"/>
       <use xlink:href="#SimHei-5f" transform="translate(200 0)"/>
       <use xlink:href="#SimHei-63" transform="translate(250 0)"/>
       <use xlink:href="#SimHei-5f" transform="translate(300 0)"/>
       <use xlink:href="#SimHei-6e" transform="translate(350 0)"/>
      </g>
     </g>
    </g>
    <g id="ytick_4">
     <g id="line2d_20">
      <g>
       <use xlink:href="#m0a6689a611" x="163.42" y="319.194338" style="fill: #4b5563; stroke: #4b5563; stroke-width: 0.8"/>
      </g>
     </g>
     <g id="text_13">
      <!-- cvss_s_u cvss_c_n -->
      <g style="fill: #4b5563" transform="translate(71.42 322.592775) scale(0.1 -0.1)">
       <use xlink:href="#SimHei-63"/>
       <use xlink:href="#SimHei-76" transform="translate(50 0)"/>
       <use xlink:href="#SimHei-73" transform="translate(100 0)"/>
       <use xlink:href="#SimHei-73" transform="translate(150 0)"/>
       <use xlink:href="#SimHei-5f" transform="translate(200 0)"/>
       <use xlink:href="#SimHei-73" transform="translate(250 0)"/>
       <use xlink:href="#SimHei-5f" transform="translate(300 0)"/>
       <use xlink:href="#SimHei-75" transform="translate(350 0)"/>
       <use xlink:href="#SimHei-20" transform="translate(400 0)"/>
       <use xlink:href="#SimHei-63" transform="translate(450 0)"/>
       <use xlink:href="#SimHei-76" transform="translate(500 0)"/>
       <use xlink:href="#SimHei-73" transform="translate(550 0)"/>
       <use xlink:href="#SimHei-73" transform="translate(600 0)"/>
       <use xlink:href="#SimHei-5f" transform="translate(650 0)"/>
       <use xlink:href="#SimHei-63" transform="translate(700 0)"/>
       <use xlink:href="#SimHei-5f" transform="translate(750 0)"/>
       <use xlink:href="#SimHei-6e" transform="translate(800 0)"/>
      </g>
     </g>
    </g>
    <g id="ytick_5">
     <g id="line2d_21">
      <g>
       <use xlink:href="#m0a6689a611" x="163.42" y="302.513093" style="fill: #4b5563; stroke: #4b5563; stroke-width: 0.8"/>
      </g>
     </g>
     <g id="text_14">
      <!-- cvss_i_n -->
      <g style="fill: #4b5563" transform="translate(116.42 305.931062) scale(0.1 -0.1)">
       <use xlink:href="#SimHei-63"/>
       <use xlink:href="#SimHei-76" transform="translate(50 0)"/>
       <use xlink:href="#SimHei-73" transform="translate(100 0)"/>
       <use xlink:href="#SimHei-73" transform="translate(150 0)"/>
       <use xlink:href="#SimHei-5f" transform="translate(200 0)"/>
       <use xlink:href="#SimHei-69" transform="translate(250 0)"/>
       <use xlink:href="#SimHei-5f" transform="translate(300 0)"/>
       <use xlink:href="#SimHei-6e" transform="translate(350 0)"/>
      </g>
     </g>
    </g>
    <g id="ytick_6">
     <g id="line2d_22">
      <g>
       <use xlink:href="#m0a6689a611" x="163.42" y="285.831849" style="fill: #4b5563; stroke: #4b5563; stroke-width: 0.8"/>
      </g>
     </g>
     <g id="text_15">
      <!-- cvss_c_l -->
      <g style="fill: #4b5563" transform="translate(116.42 289.269349) scale(0.1 -0.1)">
       <defs>
        <path id="SimHei-6c" d="M 1825 125 
L 1325 125 
L 1325 4400 
L 1825 4400 
L 1825 125 
z
" transform="scale(0.015625)"/>
       </defs>
       <use xlink:href="#SimHei-63"/>
       <use xlink:href="#SimHei-76" transform="translate(50 0)"/>
       <use xlink:href="#SimHei-73" transform="translate(100 0)"/>
       <use xlink:href="#SimHei-73" transform="translate(150 0)"/>
       <use xlink:href="#SimHei-5f" transform="translate(200 0)"/>
       <use xlink:href="#SimHei-63" transform="translate(250 0)"/>
       <use xlink:href="#SimHei-5f" transform="translate(300 0)"/>
       <use xlink:href="#SimHei-6c" transform="translate(350 0)"/>
      </g>
     </g>
    </g>
    <g id="ytick_7">
     <g id="line2d_23">
      <g>
       <use xlink:href="#m0a6689a611" x="163.42" y="269.150605" style="fill: #4b5563; stroke: #4b5563; stroke-width: 0.8"/>
      </g>
     </g>
     <g id="text_16">
      <!-- cvss_pr_n -->
      <g style="fill: #4b5563" transform="translate(111.42 272.549042) scale(0.1 -0.1)">
       <defs>
        <path id="SimHei-70" d="M 2825 1525 
Q 2825 800 2475 425 
Q 2125 50 1625 50 
Q 1350 50 1150 162 
Q 950 275 800 500 
L 800 -800 
L 300 -800 
L 300 2925 
L 800 2925 
L 800 2550 
Q 950 2775 1150 2875 
Q 1350 2975 1625 2975 
Q 2125 2975 2475 2612 
Q 2825 2250 2825 1525 
z
M 2275 1525 
Q 2275 2000 2087 2262 
Q 1900 2525 1525 2525 
Q 1225 2525 1012 2262 
Q 800 2000 800 1525 
Q 800 1050 1012 775 
Q 1225 500 1525 500 
Q 1900 500 2087 775 
Q 2275 1050 2275 1525 
z
" transform="scale(0.015625)"/>
       </defs>
       <use xlink:href="#SimHei-63"/>
       <use xlink:href="#SimHei-76" transform="translate(50 0)"/>
       <use xlink:href="#SimHei-73" transform="translate(100 0)"/>
       <use xlink:href="#SimHei-73" transform="translate(150 0)"/>
       <use xlink:href="#SimHei-5f" transform="translate(200 0)"/>
       <use xlink:href="#SimHei-70" transform="translate(250 0)"/>
       <use xlink:href="#SimHei-72" transform="translate(300 0)"/>
       <use xlink:href="#SimHei-5f" transform="translate(350 0)"/>
       <use xlink:href="#SimHei-6e" transform="translate(400 0)"/>
      </g>
     </g>
    </g>
    <g id="ytick_8">
     <g id="line2d_24">
      <g>
       <use xlink:href="#m0a6689a611" x="163.42" y="252.469361" style="fill: #4b5563; stroke: #4b5563; stroke-width: 0.8"/>
      </g>
     </g>
     <g id="text_17">
      <!-- cvss_av_n cvss_ac_l -->
      <g style="fill: #4b5563" transform="translate(61.42 255.906861) scale(0.1 -0.1)">
       <defs>
        <path id="SimHei-61" d="M 2875 125 
L 2275 125 
Q 2225 175 2200 262 
Q 2175 350 2175 475 
Q 2000 275 1750 175 
Q 1500 75 1225 75 
Q 825 75 550 275 
Q 275 475 275 850 
Q 275 1225 525 1450 
Q 775 1675 1300 1750 
Q 1650 1800 1912 1875 
Q 2175 1950 2175 2075 
Q 2175 2225 2062 2375 
Q 1950 2525 1575 2525 
Q 1275 2525 1137 2412 
Q 1000 2300 950 2100 
L 400 2100 
Q 450 2500 762 2737 
Q 1075 2975 1575 2975 
Q 2125 2975 2400 2725 
Q 2675 2475 2675 2025 
L 2675 650 
Q 2675 500 2725 375 
Q 2775 250 2875 125 
z
M 2175 1050 
L 2175 1550 
Q 2025 1500 1887 1462 
Q 1750 1425 1425 1375 
Q 1050 1325 937 1200 
Q 825 1075 825 900 
Q 825 750 937 637 
Q 1050 525 1275 525 
Q 1500 525 1762 650 
Q 2025 775 2175 1050 
z
" transform="scale(0.015625)"/>
       </defs>
       <use xlink:href="#SimHei-63"/>
       <use xlink:href="#SimHei-76" transform="translate(50 0)"/>
       <use xlink:href="#SimHei-73" transform="translate(100 0)"/>
       <use xlink:href="#SimHei-73" transform="translate(150 0)"/>
       <use xlink:href="#SimHei-5f" transform="translate(200 0)"/>
       <use xlink:href="#SimHei-61" transform="translate(250 0)"/>
       <use xlink:href="#SimHei-76" transform="translate(300 0)"/>
       <use xlink:href="#SimHei-5f" transform="translate(350 0)"/>
       <use xlink:href="#SimHei-6e" transform="translate(400 0)"/>
       <use xlink:href="#SimHei-20" transform="translate(450 0)"/>
       <use xlink:href="#SimHei-63" transform="translate(500 0)"/>
       <use xlink:href="#SimHei-76" transform="translate(550 0)"/>
       <use xlink:href="#SimHei-73" transform="translate(600 0)"/>
       <use xlink:href="#SimHei-73" transform="translate(650 0)"/>
       <use xlink:href="#SimHei-5f" transform="translate(700 0)"/>
       <use xlink:href="#SimHei-61" transform="translate(750 0)"/>
       <use xlink:href="#SimHei-63" transform="translate(800 0)"/>
       <use xlink:href="#SimHei-5f" transform="translate(850 0)"/>
       <use xlink:href="#SimHei-6c" transform="translate(900 0)"/>
      </g>
     </g>
    </g>
    <g id="ytick_9">
     <g id="line2d_25">
      <g>
       <use xlink:href="#m0a6689a611" x="163.42" y="235.788116" style="fill: #4b5563; stroke: #4b5563; stroke-width: 0.8"/>
      </g>
     </g>
     <g id="text_18">
      <!-- cvss_ui_n cvss_s_u cvss_c_h -->
      <g style="fill: #4b5563" transform="translate(21.42 239.225616) scale(0.1 -0.1)">
       <use xlink:href="#SimHei-63"/>
       <use xlink:href="#SimHei-76" transform="translate(50 0)"/>
       <use xlink:href="#SimHei-73" transform="translate(100 0)"/>
       <use xlink:href="#SimHei-73" transform="translate(150 0)"/>
       <use xlink:href="#SimHei-5f" transform="translate(200 0)"/>
       <use xlink:href="#SimHei-75" transform="translate(250 0)"/>
       <use xlink:href="#SimHei-69" transform="translate(300 0)"/>
       <use xlink:href="#SimHei-5f" transform="translate(350 0)"/>
       <use xlink:href="#SimHei-6e" transform="translate(400 0)"/>
       <use xlink:href="#SimHei-20" transform="translate(450 0)"/>
       <use xlink:href="#SimHei-63" transform="translate(500 0)"/>
       <use xlink:href="#SimHei-76" transform="translate(550 0)"/>
       <use xlink:href="#SimHei-73" transform="translate(600 0)"/>
       <use xlink:href="#SimHei-73" transform="translate(650 0)"/>
       <use xlink:href="#SimHei-5f" transform="translate(700 0)"/>
       <use xlink:href="#SimHei-73" transform="translate(750 0)"/>
       <use xlink:href="#SimHei-5f" transform="translate(800 0)"/>
       <use xlink:href="#SimHei-75" transform="translate(850 0)"/>
       <use xlink:href="#SimHei-20" transform="translate(900 0)"/>
       <use xlink:href="#SimHei-63" transform="translate(950 0)"/>
       <use xlink:href="#SimHei-76" transform="translate(1000 0)"/>
       <use xlink:href="#SimHei-73" transform="translate(1050 0)"/>
       <use xlink:href="#SimHei-73" transform="translate(1100 0)"/>
       <use xlink:href="#SimHei-5f" transform="translate(1150 0)"/>
       <use xlink:href="#SimHei-63" transform="translate(1200 0)"/>
       <use xlink:href="#SimHei-5f" transform="translate(1250 0)"/>
       <use xlink:href="#SimHei-68" transform="translate(1300 0)"/>
      </g>
     </g>
    </g>
    <g id="ytick_10">
     <g id="line2d_26">
      <g>
       <use xlink:href="#m0a6689a611" x="163.42" y="219.106872" style="fill: #4b5563; stroke: #4b5563; stroke-width: 0.8"/>
      </g>
     </g>
     <g id="text_19">
      <!-- cvss_a_h -->
      <g style="fill: #4b5563" transform="translate(116.42 222.544372) scale(0.1 -0.1)">
       <use xlink:href="#SimHei-63"/>
       <use xlink:href="#SimHei-76" transform="translate(50 0)"/>
       <use xlink:href="#SimHei-73" transform="translate(100 0)"/>
       <use xlink:href="#SimHei-73" transform="translate(150 0)"/>
       <use xlink:href="#SimHei-5f" transform="translate(200 0)"/>
       <use xlink:href="#SimHei-61" transform="translate(250 0)"/>
       <use xlink:href="#SimHei-5f" transform="translate(300 0)"/>
       <use xlink:href="#SimHei-68" transform="translate(350 0)"/>
      </g>
     </g>
    </g>
    <g id="ytick_11">
     <g id="line2d_27">
      <g>
       <use xlink:href="#m0a6689a611" x="163.42" y="202.425628" style="fill: #4b5563; stroke: #4b5563; stroke-width: 0.8"/>
      </g>
     </g>
     <g id="text_20">
      <!-- cvss_s_u cvss_c_h cvss_i_h -->
      <g style="fill: #4b5563" transform="translate(26.42 205.863128) scale(0.1 -0.1)">
       <use xlink:href="#SimHei-63"/>
       <use xlink:href="#SimHei-76" transform="translate(50 0)"/>
       <use xlink:href="#SimHei-73" transform="translate(100 0)"/>
       <use xlink:href="#SimHei-73" transform="translate(150 0)"/>
       <use xlink:href="#SimHei-5f" transform="translate(200 0)"/>
       <use xlink:href="#SimHei-73" transform="translate(250 0)"/>
       <use xlink:href="#SimHei-5f" transform="translate(300 0)"/>
       <use xlink:href="#SimHei-75" transform="translate(350 0)"/>
       <use xlink:href="#SimHei-20" transform="translate(400 0)"/>
       <use xlink:href="#SimHei-63" transform="translate(450 0)"/>
       <use xlink:href="#SimHei-76" transform="translate(500 0)"/>
       <use xlink:href="#SimHei-73" transform="translate(550 0)"/>
       <use xlink:href="#SimHei-73" transform="translate(600 0)"/>
       <use xlink:href="#SimHei-5f" transform="translate(650 0)"/>
       <use xlink:href="#SimHei-63" transform="translate(700 0)"/>
       <use xlink:href="#SimHei-5f" transform="translate(750 0)"/>
       <use xlink:href="#SimHei-68" transform="translate(800 0)"/>
       <use xlink:href="#SimHei-20" transform="translate(850 0)"/>
       <use xlink:href="#SimHei-63" transform="translate(900 0)"/>
       <use xlink:href="#SimHei-76" transform="translate(950 0)"/>
       <use xlink:href="#SimHei-73" transform="translate(1000 0)"/>
       <use xlink:href="#SimHei-73" transform="translate(1050 0)"/>
       <use xlink:href="#SimHei-5f" transform="translate(1100 0)"/>
       <use xlink:href="#SimHei-69" transform="translate(1150 0)"/>
       <use xlink:href="#SimHei-5f" transform="translate(1200 0)"/>
       <use xlink:href="#SimHei-68" transform="translate(1250 0)"/>
      </g>
     </g>
    </g>
    <g id="ytick_12">
     <g id="line2d_28">
      <g>
       <use xlink:href="#m0a6689a611" x="163.42" y="185.744384" style="fill: #4b5563; stroke: #4b5563; stroke-width: 0.8"/>
      </g>
     </g>
     <g id="text_21">
      <!-- cvss_ac_l cvss_pr_n -->
      <g style="fill: #4b5563" transform="translate(61.42 189.181884) scale(0.1 -0.1)">
       <use xlink:href="#SimHei-63"/>
       <use xlink:href="#SimHei-76" transform="translate(50 0)"/>
       <use xlink:href="#SimHei-73" transform="translate(100 0)"/>
       <use xlink:href="#SimHei-73" transform="translate(150 0)"/>
       <use xlink:href="#SimHei-5f" transform="translate(200 0)"/>
       <use xlink:href="#SimHei-61" transform="translate(250 0)"/>
       <use xlink:href="#SimHei-63" transform="translate(300 0)"/>
       <use xlink:href="#SimHei-5f" transform="translate(350 0)"/>
       <use xlink:href="#SimHei-6c" transform="translate(400 0)"/>
       <use xlink:href="#SimHei-20" transform="translate(450 0)"/>
       <use xlink:href="#SimHei-63" transform="translate(500 0)"/>
       <use xlink:href="#SimHei-76" transform="translate(550 0)"/>
       <use xlink:href="#SimHei-73" transform="translate(600 0)"/>
       <use xlink:href="#SimHei-73" transform="translate(650 0)"/>
       <use xlink:href="#SimHei-5f" transform="translate(700 0)"/>
       <use xlink:href="#SimHei-70" transform="translate(750 0)"/>
       <use xlink:href="#SimHei-72" transform="translate(800 0)"/>
       <use xlink:href="#SimHei-5f" transform="translate(850 0)"/>
       <use xlink:href="#SimHei-6e" transform="translate(900 0)"/>
      </g>
     </g>
    </g>
    <g id="ytick_13">
     <g id="line2d_29">
      <g>
       <use xlink:href="#m0a6689a611" x="163.42" y="169.063139" style="fill: #4b5563; stroke: #4b5563; stroke-width: 0.8"/>
      </g>
     </g>
     <g id="text_22">
      <!-- cvss_c_h cvss_i_h -->
      <g style="fill: #4b5563" transform="translate(71.42 172.500639) scale(0.1 -0.1)">
       <use xlink:href="#SimHei-63"/>
       <use xlink:href="#SimHei-76" transform="translate(50 0)"/>
       <use xlink:href="#SimHei-73" transform="translate(100 0)"/>
       <use xlink:href="#SimHei-73" transform="translate(150 0)"/>
       <use xlink:href="#SimHei-5f" transform="translate(200 0)"/>
       <use xlink:href="#SimHei-63" transform="translate(250 0)"/>
       <use xlink:href="#SimHei-5f" transform="translate(300 0)"/>
       <use xlink:href="#SimHei-68" transform="translate(350 0)"/>
       <use xlink:href="#SimHei-20" transform="translate(400 0)"/>
       <use xlink:href="#SimHei-63" transform="translate(450 0)"/>
       <use xlink:href="#SimHei-76" transform="translate(500 0)"/>
       <use xlink:href="#SimHei-73" transform="translate(550 0)"/>
       <use xlink:href="#SimHei-73" transform="translate(600 0)"/>
       <use xlink:href="#SimHei-5f" transform="translate(650 0)"/>
       <use xlink:href="#SimHei-69" transform="translate(700 0)"/>
       <use xlink:href="#SimHei-5f" transform="translate(750 0)"/>
       <use xlink:href="#SimHei-68" transform="translate(800 0)"/>
      </g>
     </g>
    </g>
    <g id="ytick_14">
     <g id="line2d_30">
      <g>
       <use xlink:href="#m0a6689a611" x="163.42" y="152.381895" style="fill: #4b5563; stroke: #4b5563; stroke-width: 0.8"/>
      </g>
     </g>
     <g id="text_23">
      <!-- cvss_c_h cvss_i_h cvss_a_h -->
      <g style="fill: #4b5563" transform="translate(26.42 155.819395) scale(0.1 -0.1)">
       <use xlink:href="#SimHei-63"/>
       <use xlink:href="#SimHei-76" transform="translate(50 0)"/>
       <use xlink:href="#SimHei-73" transform="translate(100 0)"/>
       <use xlink:href="#SimHei-73" transform="translate(150 0)"/>
       <use xlink:href="#SimHei-5f" transform="translate(200 0)"/>
       <use xlink:href="#SimHei-63" transform="translate(250 0)"/>
       <use xlink:href="#SimHei-5f" transform="translate(300 0)"/>
       <use xlink:href="#SimHei-68" transform="translate(350 0)"/>
       <use xlink:href="#SimHei-20" transform="translate(400 0)"/>
       <use xlink:href="#SimHei-63" transform="translate(450 0)"/>
       <use xlink:href="#SimHei-76" transform="translate(500 0)"/>
       <use xlink:href="#SimHei-73" transform="translate(550 0)"/>
       <use xlink:href="#SimHei-73" transform="translate(600 0)"/>
       <use xlink:href="#SimHei-5f" transform="translate(650 0)"/>
       <use xlink:href="#SimHei-69" transform="translate(700 0)"/>
       <use xlink:href="#SimHei-5f" transform="translate(750 0)"/>
       <use xlink:href="#SimHei-68" transform="translate(800 0)"/>
       <use xlink:href="#SimHei-20" transform="translate(850 0)"/>
       <use xlink:href="#SimHei-63" transform="translate(900 0)"/>
       <use xlink:href="#SimHei-76" transform="translate(950 0)"/>
       <use xlink:href="#SimHei-73" transform="translate(1000 0)"/>
       <use xlink:href="#SimHei-73" transform="translate(1050 0)"/>
       <use xlink:href="#SimHei-5f" transform="translate(1100 0)"/>
       <use xlink:href="#SimHei-61" transform="translate(1150 0)"/>
       <use xlink:href="#SimHei-5f" transform="translate(1200 0)"/>
       <use xlink:href="#SimHei-68" transform="translate(1250 0)"/>
      </g>
     </g>
    </g>
    <g id="ytick_15">
     <g id="line2d_31">
      <g>
       <use xlink:href="#m0a6689a611" x="163.42" y="135.700651" style="fill: #4b5563; stroke: #4b5563; stroke-width: 0.8"/>
      </g>
     </g>
     <g id="text_24">
      <!-- cvss_pr_n cvss_ui_n -->
      <g style="fill: #4b5563" transform="translate(61.42 139.11862) scale(0.1 -0.1)">
       <use xlink:href="#SimHei-63"/>
       <use xlink:href="#SimHei-76" transform="translate(50 0)"/>
       <use xlink:href="#SimHei-73" transform="translate(100 0)"/>
       <use xlink:href="#SimHei-73" transform="translate(150 0)"/>
       <use xlink:href="#SimHei-5f" transform="translate(200 0)"/>
       <use xlink:href="#SimHei-70" transform="translate(250 0)"/>
       <use xlink:href="#SimHei-72" transform="translate(300 0)"/>
       <use xlink:href="#SimHei-5f" transform="translate(350 0)"/>
       <use xlink:href="#SimHei-6e" transform="translate(400 0)"/>
       <use xlink:href="#SimHei-20" transform="translate(450 0)"/>
       <use xlink:href="#SimHei-63" transform="translate(500 0)"/>
       <use xlink:href="#SimHei-76" transform="translate(550 0)"/>
       <use xlink:href="#SimHei-73" transform="translate(600 0)"/>
       <use xlink:href="#SimHei-73" transform="translate(650 0)"/>
       <use xlink:href="#SimHei-5f" transform="translate(700 0)"/>
       <use xlink:href="#SimHei-75" transform="translate(750 0)"/>
       <use xlink:href="#SimHei-69" transform="translate(800 0)"/>
       <use xlink:href="#SimHei-5f" transform="translate(850 0)"/>
       <use xlink:href="#SimHei-6e" transform="translate(900 0)"/>
      </g>
     </g>
    </g>
    <g id="ytick_16">
     <g id="line2d_32">
      <g>
       <use xlink:href="#m0a6689a611" x="163.42" y="119.019407" style="fill: #4b5563; stroke: #4b5563; stroke-width: 0.8"/>
      </g>
     </g>
     <g id="text_25">
      <!-- cvss_av_n cvss_ac_l cvss_pr_n -->
      <g style="fill: #4b5563" transform="translate(11.42 122.456907) scale(0.1 -0.1)">
       <use xlink:href="#SimHei-63"/>
       <use xlink:href="#SimHei-76" transform="translate(50 0)"/>
       <use xlink:href="#SimHei-73" transform="translate(100 0)"/>
       <use xlink:href="#SimHei-73" transform="translate(150 0)"/>
       <use xlink:href="#SimHei-5f" transform="translate(200 0)"/>
       <use xlink:href="#SimHei-61" transform="translate(250 0)"/>
       <use xlink:href="#SimHei-76" transform="translate(300 0)"/>
       <use xlink:href="#SimHei-5f" transform="translate(350 0)"/>
       <use xlink:href="#SimHei-6e" transform="translate(400 0)"/>
       <use xlink:href="#SimHei-20" transform="translate(450 0)"/>
       <use xlink:href="#SimHei-63" transform="translate(500 0)"/>
       <use xlink:href="#SimHei-76" transform="translate(550 0)"/>
       <use xlink:href="#SimHei-73" transform="translate(600 0)"/>
       <use xlink:href="#SimHei-73" transform="translate(650 0)"/>
       <use xlink:href="#SimHei-5f" transform="translate(700 0)"/>
       <use xlink:href="#SimHei-61" transform="translate(750 0)"/>
       <use xlink:href="#SimHei-63" transform="translate(800 0)"/>
       <use xlink:href="#SimHei-5f" transform="translate(850 0)"/>
       <use xlink:href="#SimHei-6c" transform="translate(900 0)"/>
       <use xlink:href="#SimHei-20" transform="translate(950 0)"/>
       <use xlink:href="#SimHei-63" transform="translate(1000 0)"/>
       <use xlink:href="#SimHei-76" transform="translate(1050 0)"/>
       <use xlink:href="#SimHei-73" transform="translate(1100 0)"/>
       <use xlink:href="#SimHei-73" transform="translate(1150 0)"/>
       <use xlink:href="#SimHei-5f" transform="translate(1200 0)"/>
       <use xlink:href="#SimHei-70" transform="translate(1250 0)"/>
       <use xlink:href="#SimHei-72" transform="translate(1300 0)"/>
       <use xlink:href="#SimHei-5f" transform="translate(1350 0)"/>
       <use xlink:href="#SimHei-6e" transform="translate(1400 0)"/>
      </g>
     </g>
    </g>
    <g id="ytick_17">
     <g id="line2d_33">
      <g>
       <use xlink:href="#m0a6689a611" x="163.42" y="102.338162" style="fill: #4b5563; stroke: #4b5563; stroke-width: 0.8"/>
      </g>
     </g>
     <g id="text_26">
      <!-- cvss_ac_l cvss_pr_n cvss_ui_n -->
      <g style="fill: #4b5563" transform="translate(11.42 105.775662) scale(0.1 -0.1)">
       <use xlink:href="#SimHei-63"/>
       <use xlink:href="#SimHei-76" transform="translate(50 0)"/>
       <use xlink:href="#SimHei-73" transform="translate(100 0)"/>
       <use xlink:href="#SimHei-73" transform="translate(150 0)"/>
       <use xlink:href="#SimHei-5f" transform="translate(200 0)"/>
       <use xlink:href="#SimHei-61" transform="translate(250 0)"/>
       <use xlink:href="#SimHei-63" transform="translate(300 0)"/>
       <use xlink:href="#SimHei-5f" transform="translate(350 0)"/>
       <use xlink:href="#SimHei-6c" transform="translate(400 0)"/>
       <use xlink:href="#SimHei-20" transform="translate(450 0)"/>
       <use xlink:href="#SimHei-63" transform="translate(500 0)"/>
       <use xlink:href="#SimHei-76" transform="translate(550 0)"/>
       <use xlink:href="#SimHei-73" transform="translate(600 0)"/>
       <use xlink:href="#SimHei-73" transform="translate(650 0)"/>
       <use xlink:href="#SimHei-5f" transform="translate(700 0)"/>
       <use xlink:href="#SimHei-70" transform="translate(750 0)"/>
       <use xlink:href="#SimHei-72" transform="translate(800 0)"/>
       <use xlink:href="#SimHei-5f" transform="translate(850 0)"/>
       <use xlink:href="#SimHei-6e" transform="translate(900 0)"/>
       <use xlink:href="#SimHei-20" transform="translate(950 0)"/>
       <use xlink:href="#SimHei-63" transform="translate(1000 0)"/>
       <use xlink:href="#SimHei-76" transform="translate(1050 0)"/>
       <use xlink:href="#SimHei-73" transform="translate(1100 0)"/>
       <use xlink:href="#SimHei-73" transform="translate(1150 0)"/>
       <use xlink:href="#SimHei-5f" transform="translate(1200 0)"/>
       <use xlink:href="#SimHei-75" transform="translate(1250 0)"/>
       <use xlink:href="#SimHei-69" transform="translate(1300 0)"/>
       <use xlink:href="#SimHei-5f" transform="translate(1350 0)"/>
       <use xlink:href="#SimHei-6e" transform="translate(1400 0)"/>
      </g>
     </g>
    </g>
    <g id="ytick_18">
     <g id="line2d_34">
      <g>
       <use xlink:href="#m0a6689a611" x="163.42" y="85.656918" style="fill: #4b5563; stroke: #4b5563; stroke-width: 0.8"/>
      </g>
     </g>
     <g id="text_27">
      <!-- cvss_c_h -->
      <g style="fill: #4b5563" transform="translate(116.42 89.094418) scale(0.1 -0.1)">
       <use xlink:href="#SimHei-63"/>
       <use xlink:href="#SimHei-76" transform="translate(50 0)"/>
       <use xlink:href="#SimHei-73" transform="translate(100 0)"/>
       <use xlink:href="#SimHei-73" transform="translate(150 0)"/>
       <use xlink:href="#SimHei-5f" transform="translate(200 0)"/>
       <use xlink:href="#SimHei-63" transform="translate(250 0)"/>
       <use xlink:href="#SimHei-5f" transform="translate(300 0)"/>
       <use xlink:href="#SimHei-68" transform="translate(350 0)"/>
      </g>
     </g>
    </g>
    <g id="ytick_19">
     <g id="line2d_35">
      <g>
       <use xlink:href="#m0a6689a611" x="163.42" y="68.975674" style="fill: #4b5563; stroke: #4b5563; stroke-width: 0.8"/>
      </g>
     </g>
     <g id="text_28">
      <!-- cvss_i_h cvss_a_h -->
      <g style="fill: #4b5563" transform="translate(71.42 72.413174) scale(0.1 -0.1)">
       <use xlink:href="#SimHei-63"/>
       <use xlink:href="#SimHei-76" transform="translate(50 0)"/>
       <use xlink:href="#SimHei-73" transform="translate(100 0)"/>
       <use xlink:href="#SimHei-73" transform="translate(150 0)"/>
       <use xlink:href="#SimHei-5f" transform="translate(200 0)"/>
       <use xlink:href="#SimHei-69" transform="translate(250 0)"/>
       <use xlink:href="#SimHei-5f" transform="translate(300 0)"/>
       <use xlink:href="#SimHei-68" transform="translate(350 0)"/>
       <use xlink:href="#SimHei-20" transform="translate(400 0)"/>
       <use xlink:href="#SimHei-63" transform="translate(450 0)"/>
       <use xlink:href="#SimHei-76" transform="translate(500 0)"/>
       <use xlink:href="#SimHei-73" transform="translate(550 0)"/>
       <use xlink:href="#SimHei-73" transform="translate(600 0)"/>
       <use xlink:href="#SimHei-5f" transform="translate(650 0)"/>
       <use xlink:href="#SimHei-61" transform="translate(700 0)"/>
       <use xlink:href="#SimHei-5f" transform="translate(750 0)"/>
       <use xlink:href="#SimHei-68" transform="translate(800 0)"/>
      </g>
     </g>
    </g>
    <g id="ytick_20">
     <g id="line2d_36">
      <g>
       <use xlink:href="#m0a6689a611" x="163.42" y="52.29443" style="fill: #4b5563; stroke: #4b5563; stroke-width: 0.8"/>
      </g>
     </g>
     <g id="text_29">
      <!-- cvss_i_h -->
      <g style="fill: #4b5563" transform="translate(116.42 55.73193) scale(0.1 -0.1)">
       <use xlink:href="#SimHei-63"/>
       <use xlink:href="#SimHei-76" transform="translate(50 0)"/>
       <use xlink:href="#SimHei-73" transform="translate(100 0)"/>
       <use xlink:href="#SimHei-73" transform="translate(150 0)"/>
       <use xlink:href="#SimHei-5f" transform="translate(200 0)"/>
       <use xlink:href="#SimHei-69" transform="translate(250 0)"/>
       <use xlink:href="#SimHei-5f" transform="translate(300 0)"/>
       <use xlink:href="#SimHei-68" transform="translate(350 0)"/>
      </g>
     </g>
    </g>
   </g>
   <g id="patch_23">
    <path d="M 163.42 392.425 
L 163.42 29.1075 
" style="fill: none; stroke: #c9c2b8; stroke-width: 0.8; stroke-linejoin: miter; stroke-linecap: square"/>
   </g>
   <g id="patch_24">
    <path d="M 163.42 392.425 
L 625.114286 392.425 
" style="fill: none; stroke: #c9c2b8; stroke-width: 0.8; stroke-linejoin: miter; stroke-linecap: square"/>
   </g>
   <g id="text_30">
    <!--  0.00789 -->
    <g style="fill: #374151" transform="translate(353.920994 371.76932) scale(0.09 -0.09)">
     <defs>
      <path id="SimHei-38" d="M 175 1375 
Q 175 1675 325 1962 
Q 475 2250 825 2425 
Q 525 2600 425 2812 
Q 325 3025 312 3300 
Q 300 3575 387 3775 
Q 475 3975 650 4150 
Q 825 4325 1037 4387 
Q 1250 4450 1500 4450 
Q 1750 4450 1950 4400 
Q 2150 4350 2375 4187 
Q 2600 4025 2700 3725 
Q 2800 3425 2687 3025 
Q 2575 2625 2100 2400 
Q 2525 2275 2700 2012 
Q 2875 1750 2875 1375 
Q 2875 1000 2762 775 
Q 2650 550 2512 400 
Q 2375 250 2137 162 
Q 1900 75 1537 75 
Q 1175 75 912 162 
Q 650 250 475 425 
Q 300 600 237 837 
Q 175 1075 175 1375 
z
M 687 1400 
Q 675 1100 787 875 
Q 900 650 1200 587 
Q 1500 525 1825 600 
Q 2150 675 2275 950 
Q 2400 1225 2362 1500 
Q 2325 1775 2050 1962 
Q 1775 2150 1450 2125 
Q 1125 2100 912 1900 
Q 700 1700 687 1400 
z
M 775 3350 
Q 775 3100 950 2875 
Q 1125 2650 1500 2650 
Q 1875 2650 2062 2875 
Q 2250 3100 2237 3412 
Q 2225 3725 2012 3875 
Q 1800 4025 1437 4000 
Q 1075 3975 925 3787 
Q 775 3600 775 3350 
z
" transform="scale(0.015625)"/>
      <path id="SimHei-39" d="M 800 75 
Q 1350 1000 1700 1750 
Q 1075 1650 662 1912 
Q 250 2175 162 2625 
Q 75 3075 175 3437 
Q 275 3800 487 4037 
Q 700 4275 1000 4375 
Q 1300 4475 1537 4475 
Q 1775 4475 2025 4375 
Q 2275 4275 2475 4075 
Q 2675 3875 2750 3662 
Q 2825 3450 2825 3112 
Q 2825 2775 2575 2250 
Q 2325 1725 1350 75 
L 800 75 
z
M 662 2875 
Q 700 2550 937 2337 
Q 1175 2125 1450 2150 
Q 1725 2175 1887 2300 
Q 2050 2425 2200 2725 
Q 2300 3100 2250 3362 
Q 2200 3625 1987 3800 
Q 1775 3975 1525 3975 
Q 1375 4000 1137 3900 
Q 900 3800 762 3500 
Q 625 3200 662 2875 
z
" transform="scale(0.015625)"/>
     </defs>
     <use xlink:href="#SimHei-20"/>
     <use xlink:href="#SimHei-30" transform="translate(50 0)"/>
     <use xlink:href="#SimHei-2e" transform="translate(100 0)"/>
     <use xlink:href="#SimHei-30" transform="translate(150 0)"/>
     <use xlink:href="#SimHei-30" transform="translate(200 0)"/>
     <use xlink:href="#SimHei-37" transform="translate(250 0)"/>
     <use xlink:href="#SimHei-38" transform="translate(300 0)"/>
     <use xlink:href="#SimHei-39" transform="translate(350 0)"/>
    </g>
   </g>
   <g id="text_31">
    <!--  0.00819 -->
    <g style="fill: #374151" transform="translate(361.103447 355.088076) scale(0.09 -0.09)">
     <use xlink:href="#SimHei-20"/>
     <use xlink:href="#SimHei-30" transform="translate(50 0)"/>
     <use xlink:href="#SimHei-2e" transform="translate(100 0)"/>
     <use xlink:href="#SimHei-30" transform="translate(150 0)"/>
     <use xlink:href="#SimHei-30" transform="translate(200 0)"/>
     <use xlink:href="#SimHei-38" transform="translate(250 0)"/>
     <use xlink:href="#SimHei-31" transform="translate(300 0)"/>
     <use xlink:href="#SimHei-39" transform="translate(350 0)"/>
    </g>
   </g>
   <g id="text_32">
    <!--  0.00827 -->
    <g style="fill: #374151" transform="translate(362.875115 338.406832) scale(0.09 -0.09)">
     <use xlink:href="#SimHei-20"/>
     <use xlink:href="#SimHei-30" transform="translate(50 0)"/>
     <use xlink:href="#SimHei-2e" transform="translate(100 0)"/>
     <use xlink:href="#SimHei-30" transform="translate(150 0)"/>
     <use xlink:href="#SimHei-30" transform="translate(200 0)"/>
     <use xlink:href="#SimHei-38" transform="translate(250 0)"/>
     <use xlink:href="#SimHei-32" transform="translate(300 0)"/>
     <use xlink:href="#SimHei-37" transform="translate(350 0)"/>
    </g>
   </g>
   <g id="text_33">
    <!--  0.00834 -->
    <g style="fill: #374151" transform="translate(364.56422 321.725588) scale(0.09 -0.09)">
     <defs>
      <path id="SimHei-33" d="M 250 1225 
L 700 1300 
Q 800 975 1025 762 
Q 1250 550 1587 562 
Q 1925 575 2125 837 
Q 2325 1100 2300 1437 
Q 2275 1775 2037 1962 
Q 1800 2150 1275 2225 
L 1275 2550 
Q 1800 2600 2037 2825 
Q 2275 3050 2250 3412 
Q 2225 3775 1925 3937 
Q 1625 4100 1287 3975 
Q 950 3850 750 3275 
L 300 3350 
Q 450 3800 712 4100 
Q 975 4400 1425 4450 
Q 1875 4500 2212 4337 
Q 2550 4175 2687 3837 
Q 2825 3500 2725 3100 
Q 2625 2700 2150 2400 
Q 2500 2250 2687 1950 
Q 2875 1650 2812 1162 
Q 2750 675 2375 375 
Q 2000 75 1525 87 
Q 1050 100 700 387 
Q 350 675 250 1225 
z
" transform="scale(0.015625)"/>
      <path id="SimHei-34" d="M 2000 1100 
L 75 1100 
L 75 1525 
L 2100 4450 
L 2475 4450 
L 2475 1525 
L 3075 1525 
L 3075 1100 
L 2475 1100 
L 2475 150 
L 2000 150 
L 2000 1100 
z
M 2000 1525 
L 2000 3500 
L 600 1525 
L 2000 1525 
z
" transform="scale(0.015625)"/>
     </defs>
     <use xlink:href="#SimHei-20"/>
     <use xlink:href="#SimHei-30" transform="translate(50 0)"/>
     <use xlink:href="#SimHei-2e" transform="translate(100 0)"/>
     <use xlink:href="#SimHei-30" transform="translate(150 0)"/>
     <use xlink:href="#SimHei-30" transform="translate(200 0)"/>
     <use xlink:href="#SimHei-38" transform="translate(250 0)"/>
     <use xlink:href="#SimHei-33" transform="translate(300 0)"/>
     <use xlink:href="#SimHei-34" transform="translate(350 0)"/>
    </g>
   </g>
   <g id="text_34">
    <!--  0.00855 -->
    <g style="fill: #374151" transform="translate(369.614616 305.044343) scale(0.09 -0.09)">
     <use xlink:href="#SimHei-20"/>
     <use xlink:href="#SimHei-30" transform="translate(50 0)"/>
     <use xlink:href="#SimHei-2e" transform="translate(100 0)"/>
     <use xlink:href="#SimHei-30" transform="translate(150 0)"/>
     <use xlink:href="#SimHei-30" transform="translate(200 0)"/>
     <use xlink:href="#SimHei-38" transform="translate(250 0)"/>
     <use xlink:href="#SimHei-35" transform="translate(300 0)"/>
     <use xlink:href="#SimHei-35" transform="translate(350 0)"/>
    </g>
   </g>
   <g id="text_35">
    <!--  0.00889 -->
    <g style="fill: #374151" transform="translate(377.862517 288.363099) scale(0.09 -0.09)">
     <use xlink:href="#SimHei-20"/>
     <use xlink:href="#SimHei-30" transform="translate(50 0)"/>
     <use xlink:href="#SimHei-2e" transform="translate(100 0)"/>
     <use xlink:href="#SimHei-30" transform="translate(150 0)"/>
     <use xlink:href="#SimHei-30" transform="translate(200 0)"/>
     <use xlink:href="#SimHei-38" transform="translate(250 0)"/>
     <use xlink:href="#SimHei-38" transform="translate(300 0)"/>
     <use xlink:href="#SimHei-39" transform="translate(350 0)"/>
    </g>
   </g>
   <g id="text_36">
    <!--  0.00957 -->
    <g style="fill: #374151" transform="translate(394.419764 271.681855) scale(0.09 -0.09)">
     <use xlink:href="#SimHei-20"/>
     <use xlink:href="#SimHei-30" transform="translate(50 0)"/>
     <use xlink:href="#SimHei-2e" transform="translate(100 0)"/>
     <use xlink:href="#SimHei-30" transform="translate(150 0)"/>
     <use xlink:href="#SimHei-30" transform="translate(200 0)"/>
     <use xlink:href="#SimHei-39" transform="translate(250 0)"/>
     <use xlink:href="#SimHei-35" transform="translate(300 0)"/>
     <use xlink:href="#SimHei-37" transform="translate(350 0)"/>
    </g>
   </g>
   <g id="text_37">
    <!--  0.01102 -->
    <g style="fill: #374151" transform="translate(429.380529 255.000611) scale(0.09 -0.09)">
     <use xlink:href="#SimHei-20"/>
     <use xlink:href="#SimHei-30" transform="translate(50 0)"/>
     <use xlink:href="#SimHei-2e" transform="translate(100 0)"/>
     <use xlink:href="#SimHei-30" transform="translate(150 0)"/>
     <use xlink:href="#SimHei-31" transform="translate(200 0)"/>
     <use xlink:href="#SimHei-31" transform="translate(250 0)"/>
     <use xlink:href="#SimHei-30" transform="translate(300 0)"/>
     <use xlink:href="#SimHei-32" transform="translate(350 0)"/>
    </g>
   </g>
   <g id="text_38">
    <!--  0.01190 -->
    <g style="fill: #374151" transform="translate(450.67495 238.319366) scale(0.09 -0.09)">
     <use xlink:href="#SimHei-20"/>
     <use xlink:href="#SimHei-30" transform="translate(50 0)"/>
     <use xlink:href="#SimHei-2e" transform="translate(100 0)"/>
     <use xlink:href="#SimHei-30" transform="translate(150 0)"/>
     <use xlink:href="#SimHei-31" transform="translate(200 0)"/>
     <use xlink:href="#SimHei-31" transform="translate(250 0)"/>
     <use xlink:href="#SimHei-39" transform="translate(300 0)"/>
     <use xlink:href="#SimHei-30" transform="translate(350 0)"/>
    </g>
   </g>
   <g id="text_39">
    <!--  0.01205 -->
    <g style="fill: #374151" transform="translate(454.177859 221.638122) scale(0.09 -0.09)">
     <use xlink:href="#SimHei-20"/>
     <use xlink:href="#SimHei-30" transform="translate(50 0)"/>
     <use xlink:href="#SimHei-2e" transform="translate(100 0)"/>
     <use xlink:href="#SimHei-30" transform="translate(150 0)"/>
     <use xlink:href="#SimHei-31" transform="translate(200 0)"/>
     <use xlink:href="#SimHei-32" transform="translate(250 0)"/>
     <use xlink:href="#SimHei-30" transform="translate(300 0)"/>
     <use xlink:href="#SimHei-35" transform="translate(350 0)"/>
    </g>
   </g>
   <g id="text_40">
    <!--  0.01267 -->
    <g style="fill: #374151" transform="translate(469.244532 204.956878) scale(0.09 -0.09)">
     <defs>
      <path id="SimHei-36" d="M 250 1612 
Q 275 1975 387 2225 
Q 500 2475 725 2850 
L 1750 4450 
L 2325 4450 
L 1275 2800 
Q 1950 2975 2350 2750 
Q 2750 2525 2887 2237 
Q 3025 1950 3037 1612 
Q 3050 1275 2937 950 
Q 2825 625 2537 362 
Q 2250 100 1737 75 
Q 1225 50 862 262 
Q 500 475 362 862 
Q 225 1250 250 1612 
z
M 1025 787 
Q 1250 550 1625 525 
Q 2000 500 2250 775 
Q 2500 1050 2500 1575 
Q 2500 2100 2187 2300 
Q 1875 2500 1487 2450 
Q 1100 2400 925 2075 
Q 750 1750 775 1387 
Q 800 1025 1025 787 
z
" transform="scale(0.015625)"/>
     </defs>
     <use xlink:href="#SimHei-20"/>
     <use xlink:href="#SimHei-30" transform="translate(50 0)"/>
     <use xlink:href="#SimHei-2e" transform="translate(100 0)"/>
     <use xlink:href="#SimHei-30" transform="translate(150 0)"/>
     <use xlink:href="#SimHei-31" transform="translate(200 0)"/>
     <use xlink:href="#SimHei-32" transform="translate(250 0)"/>
     <use xlink:href="#SimHei-36" transform="translate(300 0)"/>
     <use xlink:href="#SimHei-37" transform="translate(350 0)"/>
    </g>
   </g>
   <g id="text_41">
    <!--  0.01287 -->
    <g style="fill: #374151" transform="translate(473.960799 188.275634) scale(0.09 -0.09)">
     <use xlink:href="#SimHei-20"/>
     <use xlink:href="#SimHei-30" transform="translate(50 0)"/>
     <use xlink:href="#SimHei-2e" transform="translate(100 0)"/>
     <use xlink:href="#SimHei-30" transform="translate(150 0)"/>
     <use xlink:href="#SimHei-31" transform="translate(200 0)"/>
     <use xlink:href="#SimHei-32" transform="translate(250 0)"/>
     <use xlink:href="#SimHei-38" transform="translate(300 0)"/>
     <use xlink:href="#SimHei-37" transform="translate(350 0)"/>
    </g>
   </g>
   <g id="text_42">
    <!--  0.01474 -->
    <g style="fill: #374151" transform="translate(519.179396 171.594389) scale(0.09 -0.09)">
     <use xlink:href="#SimHei-20"/>
     <use xlink:href="#SimHei-30" transform="translate(50 0)"/>
     <use xlink:href="#SimHei-2e" transform="translate(100 0)"/>
     <use xlink:href="#SimHei-30" transform="translate(150 0)"/>
     <use xlink:href="#SimHei-31" transform="translate(200 0)"/>
     <use xlink:href="#SimHei-34" transform="translate(250 0)"/>
     <use xlink:href="#SimHei-37" transform="translate(300 0)"/>
     <use xlink:href="#SimHei-34" transform="translate(350 0)"/>
    </g>
   </g>
   <g id="text_43">
    <!--  0.01529 -->
    <g style="fill: #374151" transform="translate(532.272679 154.913145) scale(0.09 -0.09)">
     <use xlink:href="#SimHei-20"/>
     <use xlink:href="#SimHei-30" transform="translate(50 0)"/>
     <use xlink:href="#SimHei-2e" transform="translate(100 0)"/>
     <use xlink:href="#SimHei-30" transform="translate(150 0)"/>
     <use xlink:href="#SimHei-31" transform="translate(200 0)"/>
     <use xlink:href="#SimHei-35" transform="translate(250 0)"/>
     <use xlink:href="#SimHei-32" transform="translate(300 0)"/>
     <use xlink:href="#SimHei-39" transform="translate(350 0)"/>
    </g>
   </g>
   <g id="text_44">
    <!--  0.01567 -->
    <g style="fill: #374151" transform="translate(541.647388 138.231901) scale(0.09 -0.09)">
     <use xlink:href="#SimHei-20"/>
     <use xlink:href="#SimHei-30" transform="translate(50 0)"/>
     <use xlink:href="#SimHei-2e" transform="translate(100 0)"/>
     <use xlink:href="#SimHei-30" transform="translate(150 0)"/>
     <use xlink:href="#SimHei-31" transform="translate(200 0)"/>
     <use xlink:href="#SimHei-35" transform="translate(250 0)"/>
     <use xlink:href="#SimHei-36" transform="translate(300 0)"/>
     <use xlink:href="#SimHei-37" transform="translate(350 0)"/>
    </g>
   </g>
   <g id="text_45">
    <!--  0.01584 -->
    <g style="fill: #374151" transform="translate(545.519207 121.550657) scale(0.09 -0.09)">
     <use xlink:href="#SimHei-20"/>
     <use xlink:href="#SimHei-30" transform="translate(50 0)"/>
     <use xlink:href="#SimHei-2e" transform="translate(100 0)"/>
     <use xlink:href="#SimHei-30" transform="translate(150 0)"/>
     <use xlink:href="#SimHei-31" transform="translate(200 0)"/>
     <use xlink:href="#SimHei-35" transform="translate(250 0)"/>
     <use xlink:href="#SimHei-38" transform="translate(300 0)"/>
     <use xlink:href="#SimHei-34" transform="translate(350 0)"/>
    </g>
   </g>
   <g id="text_46">
    <!--  0.01654 -->
    <g style="fill: #374151" transform="translate(562.486321 104.869412) scale(0.09 -0.09)">
     <use xlink:href="#SimHei-20"/>
     <use xlink:href="#SimHei-30" transform="translate(50 0)"/>
     <use xlink:href="#SimHei-2e" transform="translate(100 0)"/>
     <use xlink:href="#SimHei-30" transform="translate(150 0)"/>
     <use xlink:href="#SimHei-31" transform="translate(200 0)"/>
     <use xlink:href="#SimHei-36" transform="translate(250 0)"/>
     <use xlink:href="#SimHei-35" transform="translate(300 0)"/>
     <use xlink:href="#SimHei-34" transform="translate(350 0)"/>
    </g>
   </g>
   <g id="text_47">
    <!--  0.01691 -->
    <g style="fill: #374151" transform="translate(571.388404 88.188168) scale(0.09 -0.09)">
     <use xlink:href="#SimHei-20"/>
     <use xlink:href="#SimHei-30" transform="translate(50 0)"/>
     <use xlink:href="#SimHei-2e" transform="translate(100 0)"/>
     <use xlink:href="#SimHei-30" transform="translate(150 0)"/>
     <use xlink:href="#SimHei-31" transform="translate(200 0)"/>
     <use xlink:href="#SimHei-36" transform="translate(250 0)"/>
     <use xlink:href="#SimHei-39" transform="translate(300 0)"/>
     <use xlink:href="#SimHei-31" transform="translate(350 0)"/>
    </g>
   </g>
   <g id="text_48">
    <!--  0.01736 -->
    <g style="fill: #374151" transform="translate(582.288893 71.506924) scale(0.09 -0.09)">
     <use xlink:href="#SimHei-20"/>
     <use xlink:href="#SimHei-30" transform="translate(50 0)"/>
     <use xlink:href="#SimHei-2e" transform="translate(100 0)"/>
     <use xlink:href="#SimHei-30" transform="translate(150 0)"/>
     <use xlink:href="#SimHei-31" transform="translate(200 0)"/>
     <use xlink:href="#SimHei-37" transform="translate(250 0)"/>
     <use xlink:href="#SimHei-33" transform="translate(300 0)"/>
     <use xlink:href="#SimHei-36" transform="translate(350 0)"/>
    </g>
   </g>
   <g id="text_49">
    <!--  0.01822 -->
    <g style="fill: #374151" transform="translate(603.128844 54.82568) scale(0.09 -0.09)">
     <use xlink:href="#SimHei-20"/>
     <use xlink:href="#SimHei-30" transform="translate(50 0)"/>
     <use xlink:href="#SimHei-2e" transform="translate(100 0)"/>
     <use xlink:href="#SimHei-30" transform="translate(150 0)"/>
     <use xlink:href="#SimHei-31" transform="translate(200 0)"/>
     <use xlink:href="#SimHei-38" transform="translate(250 0)"/>
     <use xlink:href="#SimHei-32" transform="translate(300 0)"/>
     <use xlink:href="#SimHei-32" transform="translate(350 0)"/>
    </g>
   </g>
   <g id="text_50">
    <!-- 最佳模型特征重要性 Top20（Random Forest） -->
    <g transform="translate(240.517143 23.1075) scale(0.15 -0.15)">
     <defs>
      <path id="SimHei-6700" d="M 475 275 
Q 675 300 1100 350 
L 1100 2450 
Q 775 2450 425 2425 
L 425 2850 
Q 775 2825 1125 2825 
L 5025 2825 
Q 5475 2825 5900 2850 
L 5900 2425 
Q 5475 2450 5025 2450 
L 3050 2450 
L 3050 675 
L 3400 775 
Q 3400 550 3425 400 
Q 3225 350 3050 325 
Q 3050 -125 3075 -550 
L 2600 -550 
Q 2625 -125 2625 250 
Q 2350 200 1812 87 
Q 1275 -25 650 -175 
Q 575 100 475 275 
z
M 5100 4925 
Q 5075 4600 5075 4325 
L 5075 3875 
Q 5075 3600 5100 3250 
L 1275 3250 
Q 1300 3600 1300 3875 
L 1300 4325 
Q 1300 4600 1275 4925 
L 5100 4925 
z
M 3300 2050 
Q 3750 2025 4125 2025 
L 5375 2025 
Q 5100 975 4725 400 
Q 5350 0 5925 -100 
Q 5700 -275 5650 -500 
Q 5025 -300 4475 150 
Q 4150 -200 3600 -575 
Q 3500 -425 3250 -275 
Q 3775 -100 4150 350 
Q 3725 775 3500 1675 
L 3300 1675 
L 3300 2050 
z
M 4600 4250 
L 4600 4600 
L 1750 4600 
L 1750 4250 
L 4600 4250 
z
M 4600 3575 
L 4600 3900 
L 1750 3900 
L 1750 3575 
L 4600 3575 
z
M 3900 1675 
Q 4000 1075 4400 625 
Q 4700 1050 4850 1675 
L 3900 1675 
z
M 2625 1250 
L 2625 1675 
L 1525 1675 
L 1525 1250 
L 2625 1250 
z
M 2625 575 
L 2625 925 
L 1525 925 
L 1525 425 
L 2625 575 
z
M 2625 2025 
L 2625 2450 
L 1525 2450 
L 1525 2025 
L 2625 2025 
z
" transform="scale(0.015625)"/>
      <path id="SimHei-4f73" d="M 3750 4250 
Q 3750 4825 3725 5050 
L 4275 5050 
Q 4250 4850 4250 4250 
L 4675 4250 
Q 5275 4250 5700 4275 
L 5700 3775 
Q 5250 3825 4725 3825 
L 4250 3825 
L 4250 2925 
L 5000 2925 
Q 5550 2925 5950 2975 
L 5950 2500 
Q 5575 2525 5000 2525 
L 3075 2525 
Q 2500 2525 2125 2500 
L 2125 2975 
Q 2450 2950 3075 2925 
L 3750 2925 
L 3750 3825 
L 3200 3825 
Q 2650 3825 2325 3775 
L 2325 4275 
Q 2650 4250 3175 4250 
L 3750 4250 
z
M 3775 1525 
Q 3775 1775 3750 2325 
L 4300 2325 
Q 4275 1875 4275 1525 
L 4750 1525 
Q 5300 1525 5700 1550 
L 5700 1100 
Q 5275 1125 4775 1125 
L 4275 1125 
L 4275 125 
L 5000 125 
Q 5700 125 6050 150 
L 6050 -300 
Q 5525 -275 5050 -275 
L 2950 -275 
Q 2400 -275 2050 -300 
L 2050 150 
Q 2300 125 2925 125 
L 3775 125 
L 3775 1125 
L 3300 1125 
Q 2800 1125 2375 1075 
L 2375 1550 
Q 2825 1525 3300 1525 
L 3775 1525 
z
M 2225 4950 
Q 2050 4775 1700 3950 
L 1700 625 
Q 1700 -150 1750 -550 
L 1175 -550 
Q 1225 -125 1225 600 
L 1225 3150 
Q 1000 2700 575 2175 
Q 400 2375 200 2550 
Q 550 2900 1050 3837 
Q 1550 4775 1600 5200 
Q 1925 5050 2225 4950 
z
" transform="scale(0.015625)"/>
      <path id="SimHei-6a21" d="M 5700 3675 
Q 5675 3400 5675 2725 
Q 5675 2050 5700 1725 
L 4375 1725 
Q 4350 1450 4325 1200 
L 5225 1200 
Q 5750 1200 6025 1225 
L 6025 825 
Q 5725 850 5225 850 
L 4700 850 
Q 5075 375 5437 137 
Q 5800 -100 6200 -200 
Q 5975 -375 5850 -625 
Q 5275 -400 4862 25 
Q 4450 450 4300 775 
L 4225 775 
Q 4000 275 3537 -62 
Q 3075 -400 2475 -625 
Q 2350 -375 2125 -200 
Q 2775 -75 3200 200 
Q 3625 475 3775 850 
L 3325 850 
Q 2800 850 2400 825 
L 2400 1225 
Q 2800 1200 3350 1200 
L 3875 1200 
Q 3925 1475 3925 1725 
L 2750 1725 
Q 2775 2075 2775 2700 
Q 2775 3350 2750 3675 
L 5700 3675 
z
M 2175 1650 
Q 2025 1975 1675 2525 
L 1675 300 
Q 1675 -300 1700 -550 
L 1175 -550 
Q 1200 -275 1200 250 
L 1200 2225 
Q 1125 2000 962 1712 
Q 800 1425 600 1050 
Q 450 1275 200 1425 
Q 600 1825 850 2425 
Q 1100 3025 1175 3425 
L 950 3425 
Q 700 3425 400 3400 
L 400 3825 
Q 675 3800 825 3800 
L 1200 3800 
L 1200 4350 
Q 1200 4775 1175 5150 
L 1700 5150 
Q 1675 4825 1675 4425 
L 1675 3800 
Q 2075 3800 2375 3825 
L 2375 3400 
Q 2050 3425 1675 3425 
L 1675 2575 
Q 1850 2675 2000 2775 
Q 2150 2525 2287 2325 
Q 2425 2125 2550 1925 
Q 2325 1775 2175 1650 
z
M 3375 4300 
L 3175 4300 
Q 2700 4300 2425 4275 
L 2425 4675 
Q 2700 4650 3150 4650 
L 3375 4650 
Q 3375 5000 3350 5225 
L 3825 5225 
Q 3800 5000 3800 4650 
L 4550 4650 
Q 4550 4975 4525 5200 
L 5025 5200 
Q 5000 4925 5000 4650 
L 5375 4650 
Q 5650 4650 5950 4675 
L 5950 4275 
Q 5650 4300 5375 4300 
L 5000 4300 
L 5000 3850 
L 4550 3850 
L 4550 4300 
L 3800 4300 
L 3800 3875 
L 3375 3875 
L 3375 4300 
z
M 5275 2075 
L 5275 2525 
L 3200 2525 
L 3200 2075 
L 5275 2075 
z
M 5275 2875 
L 5275 3325 
L 3200 3325 
L 3200 2875 
L 5275 2875 
z
" transform="scale(0.015625)"/>
      <path id="SimHei-578b" d="M 2625 1775 
Q 2650 2325 2650 2700 
L 2650 3000 
L 1825 3000 
Q 1725 2375 1425 2000 
Q 1125 1625 775 1425 
Q 650 1650 375 1900 
Q 850 2075 1062 2362 
Q 1275 2650 1350 3000 
Q 900 3000 375 2975 
L 375 3450 
Q 925 3425 1400 3425 
Q 1425 3950 1425 4475 
Q 1075 4475 700 4450 
L 700 4900 
Q 1050 4875 1525 4875 
L 3000 4875 
Q 3275 4875 3650 4900 
L 3650 4450 
Q 3325 4475 3125 4475 
L 3125 3425 
Q 3450 3425 3825 3450 
L 3825 2975 
Q 3450 3000 3125 3000 
L 3125 2675 
Q 3125 2225 3150 1775 
L 2625 1775 
z
M 3000 1175 
Q 3000 1375 2975 1725 
L 3500 1725 
Q 3475 1375 3475 1175 
L 4550 1175 
Q 5050 1175 5450 1200 
L 5450 725 
Q 4975 750 4550 750 
L 3475 750 
L 3475 -50 
L 5275 -50 
Q 5700 -50 6100 -25 
L 6100 -500 
Q 5725 -475 5300 -475 
L 1250 -475 
Q 775 -475 400 -500 
L 400 -25 
Q 775 -50 1250 -50 
L 3000 -50 
L 3000 750 
L 2025 750 
Q 1500 750 975 725 
L 1050 1200 
Q 1500 1175 2025 1175 
L 3000 1175 
z
M 5775 5200 
Q 5750 4775 5750 4325 
L 5750 2400 
Q 5775 1950 5612 1775 
Q 5450 1600 4900 1525 
Q 4825 1775 4675 2100 
Q 5175 2075 5237 2150 
Q 5300 2225 5300 2525 
L 5300 4325 
Q 5300 4775 5275 5200 
L 5775 5200 
z
M 4600 4750 
Q 4575 4450 4575 3975 
L 4575 3200 
Q 4575 2825 4600 2425 
L 4100 2425 
Q 4125 2825 4125 3200 
L 4125 3975 
Q 4125 4450 4100 4750 
L 4600 4750 
z
M 2650 3425 
L 2650 4475 
L 1875 4475 
Q 1850 3750 1850 3425 
L 2650 3425 
z
" transform="scale(0.015625)"/>
      <path id="SimHei-7279" d="M 4050 3150 
L 4050 4050 
L 3675 4050 
Q 3275 4050 2975 4025 
L 2975 4475 
Q 3250 4450 3675 4450 
L 4050 4450 
Q 4050 4950 4000 5200 
L 4525 5200 
Q 4500 4950 4500 4450 
L 5075 4450 
Q 5450 4450 5800 4475 
L 5800 4025 
Q 5550 4050 5075 4050 
L 4500 4050 
L 4500 3150 
L 5450 3150 
Q 5825 3150 6150 3175 
L 6150 2725 
Q 5850 2750 5500 2750 
L 5275 2750 
L 5275 2000 
Q 5825 2000 6100 2025 
L 6100 1550 
Q 5800 1575 5275 1575 
L 5275 -75 
Q 5250 -375 5050 -487 
Q 4850 -600 4275 -675 
Q 4225 -375 4075 -100 
Q 4525 -125 4675 -100 
Q 4825 -75 4825 150 
L 4825 1575 
L 3600 1575 
Q 3175 1575 2850 1550 
L 2850 2025 
Q 3125 2000 3600 2000 
L 4825 2000 
L 4825 2750 
L 3575 2750 
Q 3125 2750 2775 2725 
L 2775 3175 
Q 3125 3150 3550 3150 
L 4050 3150 
z
M 1150 4275 
Q 1050 4125 950 3600 
L 1500 3600 
L 1500 4425 
Q 1500 4800 1475 5200 
L 2000 5200 
Q 1950 4825 1950 4425 
L 1950 3600 
Q 2300 3600 2600 3625 
L 2600 3175 
Q 2325 3200 1950 3200 
L 1950 2075 
Q 2275 2200 2575 2325 
Q 2600 2125 2650 1900 
Q 2375 1800 1950 1625 
L 1950 225 
Q 1950 -175 1975 -650 
L 1475 -650 
Q 1500 -200 1500 225 
L 1500 1450 
Q 850 1200 550 1025 
Q 450 1275 275 1550 
Q 600 1575 1500 1925 
L 1500 3200 
L 850 3200 
Q 750 2775 675 2450 
Q 425 2550 225 2600 
Q 350 2950 462 3487 
Q 575 4025 600 4400 
Q 900 4325 1150 4275 
z
M 3600 1200 
Q 3800 750 3975 325 
Q 3750 275 3500 150 
Q 3325 675 3125 1025 
Q 3375 1100 3600 1200 
z
" transform="scale(0.015625)"/>
      <path id="SimHei-5f81" d="M 5050 4650 
Q 5575 4650 5975 4675 
L 5975 4175 
Q 5575 4200 5050 4200 
L 4450 4200 
L 4450 2625 
L 5000 2625 
Q 5475 2625 5875 2650 
L 5875 2175 
Q 5475 2200 5000 2200 
L 4450 2200 
L 4450 200 
L 5100 200 
Q 5575 200 6125 225 
L 6125 -250 
Q 5575 -225 5100 -225 
L 2875 -225 
Q 2275 -225 1875 -250 
L 1875 225 
Q 2225 200 2650 200 
L 2650 2100 
Q 2650 2475 2625 2925 
L 3175 2925 
Q 3150 2500 3150 2100 
L 3150 200 
L 3925 200 
L 3925 4200 
L 3425 4200 
Q 2850 4200 2425 4175 
L 2425 4675 
Q 2850 4650 3425 4650 
L 5050 4650 
z
M 2250 3450 
Q 2100 3225 1625 2575 
L 1625 450 
Q 1625 -100 1650 -700 
L 1100 -700 
Q 1125 -100 1125 450 
L 1125 2000 
Q 825 1600 550 1300 
Q 425 1550 225 1725 
Q 675 2150 1062 2650 
Q 1450 3150 1725 3775 
Q 1950 3625 2250 3450 
z
M 250 3675 
Q 675 3975 1025 4412 
Q 1375 4850 1550 5275 
Q 1825 5125 2125 4975 
Q 1900 4725 1487 4212 
Q 1075 3700 675 3275 
Q 475 3475 250 3675 
z
" transform="scale(0.015625)"/>
      <path id="SimHei-54" d="M 2850 3925 
L 1850 3925 
L 1850 125 
L 1275 125 
L 1275 3925 
L 275 3925 
L 275 4400 
L 2850 4400 
L 2850 3925 
z
" transform="scale(0.015625)"/>
      <path id="SimHei-6f" d="M 2925 1525 
Q 2925 875 2525 475 
Q 2125 75 1575 75 
Q 1025 75 625 475 
Q 225 875 225 1525 
Q 225 2175 625 2575 
Q 1025 2975 1575 2975 
Q 2125 2975 2525 2575 
Q 2925 2175 2925 1525 
z
M 2375 1525 
Q 2375 2025 2125 2275 
Q 1875 2525 1575 2525 
Q 1275 2525 1025 2275 
Q 775 2025 775 1525 
Q 775 1025 1025 775 
Q 1275 525 1575 525 
Q 1875 525 2125 775 
Q 2375 1025 2375 1525 
z
" transform="scale(0.015625)"/>
      <path id="SimHei-ff08" d="M 5425 5100 
L 5700 4775 
Q 4275 3725 4325 2350 
Q 4350 1025 5675 50 
L 5400 -275 
Q 3875 825 3925 2500 
Q 3925 3875 5425 5100 
z
" transform="scale(0.015625)"/>
      <path id="SimHei-52" d="M 3000 125 
L 2400 125 
L 1500 1975 
L 850 1975 
L 850 125 
L 275 125 
L 275 4400 
L 1525 4400 
Q 2125 4400 2500 4112 
Q 2875 3825 2875 3175 
Q 2875 2675 2625 2400 
Q 2375 2125 2050 2050 
L 3000 125 
z
M 2300 3175 
Q 2300 3525 2087 3725 
Q 1875 3925 1400 3925 
L 850 3925 
L 850 2450 
L 1550 2450 
Q 1850 2450 2075 2612 
Q 2300 2775 2300 3175 
z
" transform="scale(0.015625)"/>
      <path id="SimHei-64" d="M 2750 125 
L 2250 125 
L 2250 500 
Q 2100 275 1900 175 
Q 1700 75 1425 75 
Q 925 75 575 437 
Q 225 800 225 1525 
Q 225 2250 575 2625 
Q 925 3000 1425 3000 
Q 1700 3000 1900 2887 
Q 2100 2775 2250 2550 
L 2250 4400 
L 2750 4400 
L 2750 125 
z
M 2250 1525 
Q 2250 2000 2037 2275 
Q 1825 2550 1525 2550 
Q 1150 2550 962 2275 
Q 775 2000 775 1525 
Q 775 1050 962 787 
Q 1150 525 1525 525 
Q 1825 525 2037 787 
Q 2250 1050 2250 1525 
z
" transform="scale(0.015625)"/>
      <path id="SimHei-6d" d="M 3050 125 
L 2550 125 
L 2550 2150 
Q 2550 2300 2500 2400 
Q 2450 2500 2300 2500 
Q 2125 2500 1975 2312 
Q 1825 2125 1825 1825 
L 1825 125 
L 1325 125 
L 1325 2150 
Q 1325 2300 1275 2400 
Q 1225 2500 1075 2500 
Q 900 2500 750 2312 
Q 600 2125 600 1825 
L 600 125 
L 100 125 
L 100 2925 
L 600 2925 
L 600 2550 
Q 725 2750 900 2862 
Q 1075 2975 1275 2975 
Q 1475 2975 1612 2862 
Q 1750 2750 1800 2550 
Q 1925 2750 2087 2862 
Q 2250 2975 2450 2975 
Q 2750 2975 2900 2812 
Q 3050 2650 3050 2350 
L 3050 125 
z
" transform="scale(0.015625)"/>
      <path id="SimHei-46" d="M 2925 3925 
L 875 3925 
L 875 2525 
L 2425 2525 
L 2425 2050 
L 875 2050 
L 875 125 
L 300 125 
L 300 4400 
L 2925 4400 
L 2925 3925 
z
" transform="scale(0.015625)"/>
      <path id="SimHei-65" d="M 2850 1075 
Q 2800 625 2450 350 
Q 2100 75 1625 75 
Q 1025 75 637 462 
Q 250 850 250 1525 
Q 250 2200 637 2587 
Q 1025 2975 1625 2975 
Q 2150 2975 2487 2637 
Q 2825 2300 2825 1525 
L 800 1525 
Q 800 975 1037 750 
Q 1275 525 1625 525 
Q 1900 525 2075 662 
Q 2250 800 2300 1075 
L 2850 1075 
z
M 2250 1925 
Q 2200 2275 2025 2412 
Q 1850 2550 1575 2550 
Q 1325 2550 1125 2412 
Q 925 2275 825 1925 
L 2250 1925 
z
" transform="scale(0.015625)"/>
      <path id="SimHei-74" d="M 2750 200 
Q 2625 150 2462 112 
Q 2300 75 2025 75 
Q 1575 75 1300 325 
Q 1025 575 1025 1025 
L 1025 2525 
L 175 2525 
L 175 2925 
L 1025 2925 
L 1025 3900 
L 1525 3900 
L 1525 2925 
L 2550 2925 
L 2550 2525 
L 1525 2525 
L 1525 1000 
Q 1525 800 1625 662 
Q 1725 525 2000 525 
Q 2275 525 2450 575 
Q 2625 625 2750 700 
L 2750 200 
z
" transform="scale(0.015625)"/>
      <path id="SimHei-ff09" d="M 1000 5100 
Q 2500 3875 2500 2500 
Q 2550 825 1025 -275 
L 750 50 
Q 2075 1025 2100 2350 
Q 2150 3725 725 4775 
L 1000 5100 
z
" transform="scale(0.015625)"/>
     </defs>
     <use xlink:href="#SimHei-6700"/>
     <use xlink:href="#SimHei-4f73" transform="translate(100 0)"/>
     <use xlink:href="#SimHei-6a21" transform="translate(200 0)"/>
     <use xlink:href="#SimHei-578b" transform="translate(300 0)"/>
     <use xlink:href="#SimHei-7279" transform="translate(400 0)"/>
     <use xlink:href="#SimHei-5f81" transform="translate(500 0)"/>
     <use xlink:href="#SimHei-91cd" transform="translate(600 0)"/>
     <use xlink:href="#SimHei-8981" transform="translate(700 0)"/>
     <use xlink:href="#SimHei-6027" transform="translate(800 0)"/>
     <use xlink:href="#SimHei-20" transform="translate(900 0)"/>
     <use xlink:href="#SimHei-54" transform="translate(950 0)"/>
     <use xlink:href="#SimHei-6f" transform="translate(1000 0)"/>
     <use xlink:href="#SimHei-70" transform="translate(1050 0)"/>
     <use xlink:href="#SimHei-32" transform="translate(1100 0)"/>
     <use xlink:href="#SimHei-30" transform="translate(1150 0)"/>
     <use xlink:href="#SimHei-ff08" transform="translate(1200 0)"/>
     <use xlink:href="#SimHei-52" transform="translate(1300 0)"/>
     <use xlink:href="#SimHei-61" transform="translate(1350 0)"/>
     <use xlink:href="#SimHei-6e" transform="translate(1400 0)"/>
     <use xlink:href="#SimHei-64" transform="translate(1450 0)"/>
     <use xlink:href="#SimHei-6f" transform="translate(1500 0)"/>
     <use xlink:href="#SimHei-6d" transform="translate(1550 0)"/>
     <use xlink:href="#SimHei-20" transform="translate(1600 0)"/>
     <use xlink:href="#SimHei-46" transform="translate(1650 0)"/>
     <use xlink:href="#SimHei-6f" transform="translate(1700 0)"/>
     <use xlink:href="#SimHei-72" transform="translate(1750 0)"/>
     <use xlink:href="#SimHei-65" transform="translate(1800 0)"/>
     <use xlink:href="#SimHei-73" transform="translate(1850 0)"/>
     <use xlink:href="#SimHei-74" transform="translate(1900 0)"/>
     <use xlink:href="#SimHei-ff09" transform="translate(1950 0)"/>
    </g>
   </g>
  </g>
 </g>
 <defs>
  <clipPath id="p55afb27503">
   <rect x="163.42" y="29.1075" width="461.694286" height="363.3175"/>
  </clipPath>
 </defs>
</svg>
