<svg xmlns="http://www.w3.org/2000/svg" width="900" height="460" viewBox="0 0 900 460"><rect width="100%" height="100%" fill="#ffffff"/>
<text x="24.0" y="36.0" text-anchor="start" font-family="Arial, sans-serif" font-size="22" font-weight="bold" fill="#0f172a">Model Comparison</text>
<line x1="90.0" y1="72.0" x2="90.0" y2="352.0" stroke="#334155" stroke-width="1.5"/>
<line x1="90.0" y1="352.0" x2="850.0" y2="352.0" stroke="#334155" stroke-width="1.5"/>
<rect x="130.0" y="85.7" width="46.0" height="266.3" fill="#2563eb" stroke="#0f172a"/>
<text x="153.0" y="79.7" text-anchor="middle" font-family="Arial, sans-serif" font-size="12" font-weight="bold" fill="#0f172a">0.95</text>
<rect x="184.0" y="93.7" width="46.0" height="258.3" fill="#16a34a" stroke="#0f172a"/>
<text x="207.0" y="87.7" text-anchor="middle" font-family="Arial, sans-serif" font-size="12" font-weight="bold" fill="#0f172a">0.92</text>
<rect x="238.0" y="85.4" width="46.0" height="266.6" fill="#dc2626" stroke="#0f172a"/>
<text x="261.0" y="79.4" text-anchor="middle" font-family="Arial, sans-serif" font-size="12" font-weight="bold" fill="#0f172a">0.95</text>
<text x="210.0" y="380.0" text-anchor="middle" font-family="Arial, sans-serif" font-size="12" font-weight="normal" fill="#0f172a">logistic_regression</text>
<rect x="383.3" y="92.2" width="46.0" height="259.8" fill="#2563eb" stroke="#0f172a"/>
<text x="406.3" y="86.2" text-anchor="middle" font-family="Arial, sans-serif" font-size="12" font-weight="bold" fill="#0f172a">0.93</text>
<rect x="437.3" y="97.3" width="46.0" height="254.7" fill="#16a34a" stroke="#0f172a"/>
<text x="460.3" y="91.3" text-anchor="middle" font-family="Arial, sans-serif" font-size="12" font-weight="bold" fill="#0f172a">0.91</text>
<rect x="491.3" y="92.2" width="46.0" height="259.8" fill="#dc2626" stroke="#0f172a"/>
<text x="514.3" y="86.2" text-anchor="middle" font-family="Arial, sans-serif" font-size="12" font-weight="bold" fill="#0f172a">0.93</text>
<text x="463.3" y="380.0" text-anchor="middle" font-family="Arial, sans-serif" font-size="12" font-weight="normal" fill="#0f172a">linear_svm</text>
<rect x="636.7" y="80.5" width="46.0" height="271.5" fill="#2563eb" stroke="#0f172a"/>
<text x="659.7" y="74.5" text-anchor="middle" font-family="Arial, sans-serif" font-size="12" font-weight="bold" fill="#0f172a">0.97</text>
<rect x="690.7" y="84.8" width="46.0" height="267.2" fill="#16a34a" stroke="#0f172a"/>
<text x="713.7" y="78.8" text-anchor="middle" font-family="Arial, sans-serif" font-size="12" font-weight="bold" fill="#0f172a">0.95</text>
<rect x="744.7" y="80.4" width="46.0" height="271.6" fill="#dc2626" stroke="#0f172a"/>
<text x="767.7" y="74.4" text-anchor="middle" font-family="Arial, sans-serif" font-size="12" font-weight="bold" fill="#0f172a">0.97</text>
<text x="716.7" y="380.0" text-anchor="middle" font-family="Arial, sans-serif" font-size="12" font-weight="normal" fill="#0f172a">random_forest</text>
<rect x="90.0" y="406.0" width="18.0" height="18.0" fill="#2563eb" stroke="#0f172a"/>
<text x="116.0" y="420.0" text-anchor="start" font-family="Arial, sans-serif" font-size="13" font-weight="normal" fill="#0f172a">accuracy</text>
<rect x="270.0" y="406.0" width="18.0" height="18.0" fill="#16a34a" stroke="#0f172a"/>
<text x="296.0" y="420.0" text-anchor="start" font-family="Arial, sans-serif" font-size="13" font-weight="normal" fill="#0f172a">macro_f1</text>
<rect x="450.0" y="406.0" width="18.0" height="18.0" fill="#dc2626" stroke="#0f172a"/>
<text x="476.0" y="420.0" text-anchor="start" font-family="Arial, sans-serif" font-size="13" font-weight="normal" fill="#0f172a">weighted_f1</text>
</svg>